<svg xmlns="http://www.w3.org/2000/svg" xmlns:xlink="http://www.w3.org/1999/xlink" width="500" zoomAndPan="magnify" viewBox="0 0 375 374.999991" height="500" preserveAspectRatio="xMidYMid meet" version="1.0"><defs><g/><clipPath id="5b7b499be3"><path d="M 85 132 L 149 132 L 149 247 L 85 247 Z M 85 132 " clip-rule="nonzero"/></clipPath><clipPath id="8de57063e2"><path d="M 110.199219 119.234375 L 163.933594 138.253906 L 122.394531 255.621094 L 68.660156 236.601562 Z M 110.199219 119.234375 " clip-rule="nonzero"/></clipPath><clipPath id="c964284e9b"><path d="M 110.199219 119.234375 L 163.933594 138.253906 L 122.394531 255.621094 L 68.660156 236.601562 Z M 110.199219 119.234375 " clip-rule="nonzero"/></clipPath><clipPath id="de2218681d"><path d="M 110.199219 119.234375 L 163.933594 138.253906 L 122.394531 255.621094 L 68.660156 236.601562 Z M 110.199219 119.234375 " clip-rule="nonzero"/></clipPath></defs><rect x="-37.5" width="450" fill="#ffffff" y="-37.499999" height="449.999989" fill-opacity="1"/><rect x="-37.5" width="450" fill="#101010" y="-37.499999" height="449.999989" fill-opacity="1"/><g clip-path="url(#5b7b499be3)"><g clip-path="url(#8de57063e2)"><g clip-path="url(#c964284e9b)"><g clip-path="url(#de2218681d)"><path fill="#f94616" d="M 133.875 204.070312 C 136.710938 199.148438 137.929688 193.980469 137.960938 188.5 C 137.964844 187.410156 137.984375 186.316406 137.832031 185.230469 C 137.789062 184.949219 137.699219 184.59375 138.078125 184.484375 C 138.464844 184.375 138.644531 184.675781 138.773438 184.988281 C 139.828125 187.601562 140.585938 190.265625 140.671875 193.117188 C 140.796875 197.234375 140.359375 201.277344 139.304688 205.242188 C 136.546875 215.644531 131.078125 224.425781 123.140625 231.671875 C 118.566406 235.847656 113.808594 239.796875 108.230469 242.636719 C 106.6875 243.421875 105.160156 244.246094 103.617188 245.039062 C 101.921875 245.910156 100.058594 246.222656 98.222656 246.617188 C 98.015625 246.664062 97.789062 246.59375 97.574219 246.597656 C 96.984375 246.613281 96.945312 246.394531 97.230469 245.933594 C 97.816406 244.988281 98.472656 244.089844 98.972656 243.089844 C 100.125 240.78125 100.886719 238.386719 101.109375 235.792969 C 101.5 231.316406 100.417969 227.160156 98.53125 223.148438 C 96.816406 219.5 94.78125 216.019531 92.902344 212.457031 C 89.097656 205.261719 87.628906 197.589844 88.078125 189.523438 C 88.246094 186.550781 88.746094 183.636719 89.476562 180.761719 C 89.589844 180.316406 89.78125 179.890625 89.933594 179.457031 C 90.027344 179.191406 90.171875 178.9375 90.476562 178.933594 C 90.820312 178.925781 90.878906 179.246094 90.9375 179.5 C 91.324219 181.183594 91.652344 182.878906 91.859375 184.597656 C 92.164062 187.160156 92.527344 189.71875 93.609375 192.105469 C 94.28125 193.59375 95.140625 194.925781 96.675781 195.703125 C 98.84375 196.800781 100.683594 195.792969 100.824219 193.363281 C 100.917969 191.730469 100.441406 190.191406 99.914062 188.664062 C 99.238281 186.699219 98.351562 184.820312 97.390625 182.976562 C 94.988281 178.363281 94.019531 173.515625 94.859375 168.359375 C 95.027344 167.328125 95.175781 166.292969 95.527344 165.304688 C 95.628906 165.015625 95.683594 164.628906 96.105469 164.660156 C 96.519531 164.6875 96.554688 165.074219 96.601562 165.371094 C 96.878906 167.09375 97.601562 168.636719 98.574219 170.058594 C 99.617188 171.585938 101.214844 172.457031 102.722656 173.457031 C 110.761719 178.804688 115.160156 186.386719 113.546875 196.050781 C 113.109375 198.675781 112.34375 201.207031 111.589844 203.75 C 111.035156 205.632812 110.507812 207.53125 110.058594 209.441406 C 109.832031 210.40625 109.867188 211.429688 110.875 212.027344 C 111.804688 212.578125 112.65625 212.160156 113.46875 211.667969 C 114.949219 210.769531 115.933594 209.425781 116.792969 207.972656 C 118.621094 204.890625 118.917969 201.453125 118.988281 197.996094 C 119.101562 192.511719 118.652344 187.042969 118.332031 181.570312 C 118.03125 176.378906 118.050781 171.191406 118.917969 166.046875 C 120.722656 155.332031 125.507812 146.355469 134.480469 139.878906 C 137.203125 137.917969 140.179688 136.390625 143.222656 134.984375 C 144.617188 134.335938 146.027344 133.71875 147.4375 133.09375 C 147.65625 133 147.894531 132.925781 148.132812 132.886719 C 148.511719 132.828125 148.65625 132.988281 148.460938 133.34375 C 148.371094 133.511719 148.261719 133.695312 148.113281 133.800781 C 145.828125 135.378906 144.15625 137.5 142.710938 139.824219 C 141.472656 141.820312 140.082031 143.726562 138.9375 145.785156 C 137.550781 148.277344 136.371094 150.863281 135.261719 153.484375 C 133.707031 157.164062 132.53125 160.957031 132.101562 164.921875 C 131.511719 170.367188 131.539062 175.820312 132.445312 181.257812 C 133.273438 186.246094 134.160156 191.226562 134.253906 196.304688 C 134.296875 198.613281 134.199219 200.910156 133.929688 203.203125 C 133.898438 203.433594 133.898438 203.667969 133.875 204.070312 Z M 111.066406 195.078125 C 111.484375 193.875 111.648438 192.621094 111.554688 191.367188 C 111.34375 188.566406 110.464844 185.929688 109.085938 183.492188 C 108.019531 181.609375 106.726562 179.871094 104.875 178.636719 C 104.710938 178.523438 104.507812 178.332031 104.371094 178.472656 C 104.152344 178.695312 104.445312 178.855469 104.582031 179 C 106.566406 181.148438 108.183594 183.542969 109.222656 186.277344 C 110.3125 189.140625 110.78125 192.105469 110.429688 195.175781 C 110.402344 195.429688 110.207031 195.875 110.519531 195.964844 C 110.902344 196.078125 110.816406 195.570312 110.964844 195.351562 C 111.015625 195.273438 111.03125 195.171875 111.066406 195.078125 Z M 129.703125 183.160156 C 129.523438 183.320312 129.582031 183.472656 129.605469 183.609375 C 130.097656 186.773438 130.09375 189.96875 130.21875 193.152344 C 130.320312 195.621094 130.828125 198.039062 130.96875 200.5 C 130.976562 200.652344 131 200.816406 131.164062 200.847656 C 131.363281 200.882812 131.371094 200.683594 131.421875 200.558594 C 131.464844 200.449219 131.496094 200.324219 131.5 200.207031 C 131.535156 199.074219 131.617188 197.941406 131.589844 196.8125 C 131.476562 192.351562 130.714844 187.960938 129.96875 183.570312 C 129.941406 183.394531 129.917969 183.234375 129.703125 183.160156 Z M 129.621094 206.980469 C 129.578125 207.105469 129.515625 207.265625 129.464844 207.425781 C 129.433594 207.535156 129.363281 207.675781 129.523438 207.730469 C 129.59375 207.757812 129.714844 207.722656 129.785156 207.671875 C 130.515625 207.175781 131.324219 204.785156 131.046875 203.984375 C 130.992188 203.828125 130.90625 203.710938 130.746094 203.71875 C 130.554688 203.726562 130.554688 203.910156 130.535156 204.042969 C 130.382812 205.058594 130.074219 206.019531 129.621094 206.980469 Z M 101.753906 175.738281 C 101.707031 175.796875 101.660156 175.855469 101.613281 175.914062 C 102.066406 176.429688 102.519531 176.949219 102.972656 177.46875 C 103.0625 177.578125 103.15625 177.613281 103.285156 177.546875 C 103.410156 177.484375 103.371094 177.382812 103.316406 177.3125 C 102.851562 176.730469 102.445312 176.082031 101.753906 175.738281 Z M 116.226562 178.9375 C 115.445312 176.246094 115.292969 173.492188 115.476562 170.71875 C 115.710938 167.152344 116.417969 163.664062 117.296875 160.203125 C 118.179688 156.71875 119.476562 153.386719 121.40625 150.347656 C 123.878906 146.453125 126.894531 143.015625 130.664062 140.285156 C 130.941406 140.085938 131.316406 139.863281 131.054688 139.476562 C 130.808594 139.113281 130.480469 139.40625 130.214844 139.546875 C 128.507812 140.445312 126.835938 141.425781 125.34375 142.636719 C 120.898438 146.242188 117.824219 150.863281 115.660156 156.113281 C 114.675781 158.503906 114.074219 161.003906 113.625 163.554688 C 112.722656 168.683594 113.429688 173.65625 115.035156 178.546875 C 115.214844 179.101562 115.410156 179.789062 116.273438 179.90625 C 116.320312 179.550781 116.316406 179.246094 116.226562 178.9375 Z M 97.675781 234.65625 C 97.578125 231.125 96.761719 227.835938 94.648438 224.910156 C 92.640625 222.132812 90.261719 219.6875 87.914062 217.210938 C 87.527344 216.804688 87.117188 216.425781 86.703125 216.046875 C 86.539062 215.894531 86.320312 215.761719 86.117188 215.9375 C 85.886719 216.128906 85.949219 216.371094 86.128906 216.582031 C 86.207031 216.675781 86.289062 216.765625 86.375 216.851562 C 87.429688 217.929688 88.191406 219.195312 88.871094 220.527344 C 89.972656 222.679688 91.058594 224.832031 92.449219 226.828125 C 94.941406 230.417969 96.433594 234.355469 96.4375 238.773438 C 96.4375 239.039062 96.449219 239.308594 96.46875 239.574219 C 96.484375 239.792969 96.605469 239.933594 96.832031 239.964844 C 97.085938 240.003906 97.175781 239.839844 97.222656 239.636719 C 97.542969 237.992188 97.726562 236.339844 97.675781 234.65625 Z M 127.160156 232.265625 C 127.175781 231.835938 127.65625 231.300781 127.125 231 C 126.613281 230.710938 126.316406 231.292969 126.007812 231.597656 C 121.957031 235.65625 117.808594 239.59375 113.058594 242.855469 C 111.058594 244.230469 108.925781 245.332031 106.675781 246.226562 C 106.363281 246.351562 105.667969 246.191406 105.8125 246.726562 C 105.9375 247.171875 106.53125 246.867188 106.847656 246.746094 C 110.324219 245.449219 113.800781 244.160156 117.050781 242.347656 C 117.902344 241.875 118.726562 241.355469 119.601562 240.914062 C 123.109375 239.136719 125.628906 236.453125 126.964844 232.835938 C 127.054688 232.585938 127.152344 232.429688 127.160156 232.265625 Z M 135.984375 174.398438 C 136.074219 176.851562 136.179688 179.3125 137.4375 181.535156 C 137.542969 181.722656 137.585938 181.992188 137.867188 181.972656 C 138.136719 181.953125 138.160156 181.707031 138.210938 181.488281 C 138.789062 179.027344 138.921875 176.539062 138.402344 174.066406 C 137.988281 172.121094 137.917969 170.1875 137.996094 168.214844 C 138.082031 166.039062 138.457031 163.941406 139.285156 161.921875 C 139.371094 161.710938 139.417969 161.457031 139.136719 161.375 C 138.84375 161.289062 138.683594 161.527344 138.613281 161.765625 C 138.226562 163.058594 137.289062 164.128906 137.210938 164.945312 C 136.296875 168.414062 135.875 171.375 135.984375 174.398438 Z M 96.078125 161.023438 C 96.09375 161.507812 95.914062 162.195312 96.503906 162.367188 C 97.109375 162.539062 97.464844 161.933594 97.800781 161.492188 C 97.816406 161.472656 97.828125 161.453125 97.84375 161.433594 C 98.496094 160.351562 99.027344 159.207031 99.53125 158.050781 C 100.152344 156.625 100.640625 155.144531 101.34375 153.753906 C 102.054688 152.339844 102.996094 151.070312 103.824219 149.730469 C 103.988281 149.460938 104.121094 149.183594 103.828125 148.949219 C 103.550781 148.726562 103.335938 148.957031 103.140625 149.144531 C 102.5625 149.699219 101.984375 150.253906 101.40625 150.808594 C 99.441406 152.6875 97.65625 154.683594 96.722656 157.496094 C 96.347656 158.523438 96.035156 159.742188 96.078125 161.023438 Z M 96.078125 161.023438 " fill-opacity="1" fill-rule="nonzero"/></g></g></g></g><g fill="#f94616" fill-opacity="1"><g transform="translate(154.980786, 221.599994)"><g><path d="M 2.921875 0 C 3.332031 -0.0664062 3.738281 -0.0664062 4.214844 -0.0351562 C 4.625 -0.0351562 5.03125 -0.203125 5.507812 -0.578125 C 5.542969 -0.578125 5.609375 -0.644531 5.710938 -0.746094 C 5.8125 -0.851562 5.914062 -0.953125 6.015625 -1.019531 C 5.949219 -1.089844 5.949219 -1.222656 5.949219 -1.359375 C 5.949219 -1.496094 5.914062 -1.632812 5.847656 -1.734375 C 5.675781 -1.9375 5.675781 -2.109375 5.8125 -2.3125 C 5.882812 -2.414062 5.949219 -2.71875 5.949219 -3.230469 C 5.949219 -4.148438 5.882812 -4.726562 5.8125 -4.964844 C 5.8125 -5.101562 5.8125 -5.542969 5.78125 -6.222656 C 5.710938 -6.902344 5.78125 -7.34375 5.949219 -7.511719 C 5.949219 -7.511719 5.984375 -7.582031 5.984375 -7.648438 L 5.949219 -7.75 C 5.8125 -8.226562 5.8125 -8.703125 5.949219 -9.246094 C 5.984375 -9.554688 5.984375 -9.757812 5.914062 -9.824219 C 5.847656 -9.894531 5.8125 -10.132812 5.8125 -10.472656 C 5.746094 -10.878906 5.8125 -11.152344 5.949219 -11.289062 C 5.914062 -11.492188 5.914062 -11.933594 5.949219 -12.613281 C 5.949219 -13.292969 5.914062 -13.734375 5.8125 -13.90625 C 5.78125 -13.972656 5.78125 -14.039062 5.8125 -14.144531 C 6.015625 -14.484375 6.015625 -14.890625 5.8125 -15.367188 C 5.746094 -15.402344 5.78125 -15.570312 5.847656 -15.84375 C 6.015625 -16.386719 5.984375 -16.863281 5.78125 -17.269531 C 5.847656 -17.269531 5.914062 -17.339844 5.914062 -17.40625 L 5.914062 -19.652344 C 5.78125 -20.058594 5.40625 -20.433594 4.828125 -20.703125 C 4.589844 -20.636719 4.214844 -20.601562 3.707031 -20.570312 C 3.195312 -20.535156 2.820312 -20.5 2.582031 -20.5 L 2.277344 -20.195312 C 2.140625 -19.855469 2.074219 -19.617188 2.074219 -19.515625 C 2.039062 -19.277344 2.039062 -19.074219 2.074219 -18.867188 C 2.140625 -18.324219 2.175781 -18.050781 2.210938 -18.019531 C 2.3125 -17.746094 2.3125 -17.476562 2.210938 -17.203125 C 2.109375 -17.066406 2.074219 -16.691406 2.074219 -16.148438 C 2.003906 -15.605469 2.003906 -15.09375 2.074219 -14.585938 C 2.074219 -14.449219 2.039062 -14.277344 2.039062 -14.074219 C 2.039062 -13.835938 2.039062 -13.632812 2.074219 -13.464844 C 2.074219 -13.292969 2.140625 -13.121094 2.210938 -12.988281 C 2.347656 -12.816406 2.3125 -12.648438 2.175781 -12.511719 C 2.140625 -12.476562 2.109375 -12.273438 2.074219 -11.933594 C 2.003906 -11.730469 2.039062 -11.421875 2.109375 -11.015625 C 2.175781 -10.605469 2.210938 -10.371094 2.210938 -10.300781 C 2.242188 -9.484375 2.242188 -8.667969 2.210938 -7.886719 C 2.210938 -6.867188 2.140625 -6.085938 2.074219 -5.574219 C 2.003906 -5.132812 2.003906 -4.523438 2.109375 -3.707031 C 2.175781 -2.890625 2.210938 -2.277344 2.210938 -1.902344 C 2.210938 -1.769531 2.175781 -1.597656 2.140625 -1.359375 C 2.109375 -1.121094 2.109375 -0.953125 2.109375 -0.882812 C 2.140625 -0.816406 2.175781 -0.714844 2.242188 -0.578125 C 2.3125 -0.40625 2.347656 -0.304688 2.414062 -0.238281 C 2.480469 -0.203125 2.550781 -0.171875 2.6875 -0.101562 C 2.789062 -0.0351562 2.855469 0 2.921875 0 Z M 2.921875 0 "/></g></g></g><g fill="#f94616" fill-opacity="1"><g transform="translate(166.777827, 221.599994)"><g><path d="M 10.472656 0.375 C 10.710938 0.441406 10.945312 0.375 11.152344 0.238281 C 11.21875 0.171875 11.457031 0.136719 11.863281 0.171875 C 12.171875 0.273438 12.546875 0.273438 12.953125 0.203125 C 13.089844 0.136719 13.292969 0.101562 13.496094 0.101562 C 13.699219 0.101562 13.972656 0.0664062 14.382812 0.0351562 C 14.753906 0 15.027344 -0.0351562 15.230469 -0.0664062 C 15.402344 -0.101562 15.570312 -0.171875 15.707031 -0.304688 C 15.84375 -0.441406 16.011719 -0.578125 16.148438 -0.746094 C 16.113281 -0.882812 16.148438 -1.054688 16.21875 -1.257812 C 16.285156 -1.460938 16.320312 -1.664062 16.320312 -1.800781 C 16.320312 -1.9375 16.285156 -2.140625 16.21875 -2.414062 C 16.148438 -2.6875 16.148438 -2.855469 16.148438 -2.992188 C 16.113281 -3.433594 16.148438 -3.976562 16.285156 -4.65625 C 16.285156 -4.726562 16.320312 -5.132812 16.320312 -5.847656 C 16.320312 -6.390625 16.285156 -6.832031 16.285156 -7.105469 C 16.285156 -7.75 16.25 -8.125 16.21875 -8.261719 C 16.082031 -8.363281 16.082031 -8.566406 16.183594 -8.875 C 16.25 -9.144531 16.320312 -9.347656 16.320312 -9.453125 L 16.320312 -9.519531 C 16.320312 -9.554688 16.285156 -9.585938 16.285156 -9.585938 C 16.148438 -9.6875 16.113281 -9.925781 16.148438 -10.335938 C 16.148438 -10.710938 16.148438 -10.945312 16.148438 -11.082031 C 15.742188 -11.355469 15.535156 -11.492188 15.503906 -11.558594 C 15.402344 -11.558594 15.265625 -11.523438 15.128906 -11.523438 C 14.957031 -11.523438 14.824219 -11.523438 14.6875 -11.558594 C 14.550781 -11.558594 14.449219 -11.628906 14.347656 -11.695312 C 14.175781 -11.761719 14.039062 -11.761719 13.90625 -11.695312 C 13.769531 -11.628906 13.667969 -11.558594 13.53125 -11.558594 C 13.394531 -11.523438 13.257812 -11.523438 13.121094 -11.523438 C 12.953125 -11.523438 12.851562 -11.558594 12.78125 -11.558594 C 12.648438 -11.558594 12.441406 -11.523438 12.171875 -11.492188 C 11.898438 -11.421875 11.695312 -11.421875 11.558594 -11.421875 L 10.640625 -11.421875 C 10.539062 -11.253906 10.371094 -11.015625 10.164062 -10.710938 C 10.164062 -10.164062 10.164062 -9.859375 10.199219 -9.792969 C 10.335938 -9.113281 10.503906 -8.667969 10.777344 -8.5 C 10.8125 -8.464844 10.878906 -8.429688 10.945312 -8.363281 C 11.015625 -8.296875 11.082031 -8.261719 11.117188 -8.261719 C 11.117188 -8.261719 11.183594 -8.226562 11.253906 -8.226562 C 11.320312 -8.226562 11.390625 -8.226562 11.457031 -8.296875 C 11.523438 -8.363281 11.59375 -8.398438 11.660156 -8.429688 C 11.730469 -8.429688 11.832031 -8.429688 11.898438 -8.429688 C 11.96875 -8.429688 12.035156 -8.398438 12.101562 -8.398438 C 12.171875 -8.363281 12.238281 -8.328125 12.339844 -8.296875 C 12.410156 -8.261719 12.476562 -8.226562 12.546875 -8.226562 C 12.886719 -7.140625 13.054688 -6.425781 13.019531 -6.015625 C 13.019531 -5.949219 12.988281 -5.847656 12.953125 -5.710938 C 12.886719 -5.574219 12.886719 -5.472656 12.886719 -5.40625 C 12.886719 -5.304688 12.886719 -5.167969 12.953125 -4.996094 C 12.988281 -4.828125 13.019531 -4.726562 13.019531 -4.691406 L 13.019531 -4.488281 C 12.886719 -4.453125 12.851562 -4.316406 12.851562 -4.046875 C 12.851562 -3.773438 12.851562 -3.605469 12.851562 -3.535156 C 12.546875 -3.128906 12.375 -2.890625 12.375 -2.890625 L 11.96875 -2.890625 C 11.660156 -2.71875 11.117188 -2.71875 10.371094 -2.921875 L 10.199219 -2.992188 C 10.097656 -3.027344 10.027344 -3.058594 9.996094 -3.058594 C 9.722656 -3.058594 9.214844 -3.160156 8.398438 -3.367188 C 7.820312 -3.5 7.480469 -3.636719 7.378906 -3.738281 C 6.867188 -4.046875 6.527344 -4.453125 6.390625 -4.929688 C 6.1875 -5.40625 5.8125 -5.914062 5.234375 -6.390625 C 5.234375 -6.492188 5.234375 -6.664062 5.234375 -6.867188 C 5.234375 -7.070312 5.269531 -7.242188 5.269531 -7.378906 C 5.269531 -7.511719 5.234375 -7.683594 5.234375 -7.820312 C 5.167969 -7.957031 5.132812 -8.296875 5.101562 -8.804688 C 5.101562 -8.875 5.066406 -9.042969 5.03125 -9.28125 C 4.964844 -9.519531 4.964844 -9.722656 4.964844 -9.859375 L 4.964844 -12.207031 C 5.304688 -12.78125 5.574219 -13.429688 5.710938 -14.175781 C 5.78125 -14.585938 6.015625 -14.992188 6.359375 -15.402344 C 7.039062 -16.21875 7.886719 -16.863281 8.941406 -17.269531 C 9.417969 -17.441406 9.792969 -17.542969 9.996094 -17.542969 C 10.097656 -17.542969 10.265625 -17.542969 10.472656 -17.609375 C 10.675781 -17.644531 10.777344 -17.679688 10.84375 -17.679688 L 11.832031 -17.679688 C 11.96875 -17.746094 12.070312 -17.78125 12.136719 -17.847656 C 12.339844 -17.710938 12.648438 -17.542969 13.054688 -17.371094 C 13.769531 -17.40625 14.3125 -17.476562 14.652344 -17.542969 C 15.0625 -17.679688 15.332031 -17.882812 15.433594 -18.1875 C 15.433594 -18.1875 15.433594 -18.257812 15.46875 -18.324219 L 15.535156 -18.460938 C 15.535156 -18.460938 15.535156 -18.496094 15.535156 -18.5625 C 15.433594 -18.699219 15.402344 -18.9375 15.402344 -19.277344 C 15.402344 -19.617188 15.402344 -19.855469 15.402344 -19.992188 C 15.195312 -20.125 14.957031 -20.261719 14.6875 -20.363281 C 14.414062 -20.433594 14.175781 -20.5 13.972656 -20.535156 C 13.769531 -20.535156 13.53125 -20.570312 13.226562 -20.601562 C 12.917969 -20.601562 12.679688 -20.636719 12.546875 -20.671875 C 12.207031 -20.703125 11.730469 -20.703125 11.117188 -20.636719 C 10.503906 -20.570312 10.097656 -20.535156 9.894531 -20.535156 L 9.585938 -20.535156 C 9.453125 -20.535156 9.347656 -20.5 9.316406 -20.5 C 9.144531 -20.5 8.976562 -20.433594 8.839844 -20.363281 C 8.667969 -20.261719 8.429688 -20.226562 8.089844 -20.226562 L 7.34375 -20.226562 C 7.242188 -20.160156 7.105469 -20.09375 6.96875 -20.023438 C 6.832031 -19.957031 6.699219 -19.886719 6.5625 -19.820312 C 6.425781 -19.753906 6.324219 -19.753906 6.1875 -19.753906 C 5.914062 -19.71875 5.574219 -19.582031 5.234375 -19.378906 C 5.03125 -19.242188 4.757812 -19.003906 4.453125 -18.734375 C 4.148438 -18.460938 3.976562 -18.289062 3.910156 -18.222656 C 3.839844 -18.15625 3.707031 -18.050781 3.570312 -17.949219 C 3.398438 -17.847656 3.296875 -17.746094 3.265625 -17.679688 C 2.855469 -17.066406 2.582031 -16.625 2.480469 -16.285156 C 2.242188 -15.773438 2.074219 -15.46875 1.972656 -15.367188 C 1.871094 -15.265625 1.800781 -15.09375 1.800781 -14.855469 C 1.800781 -14.617188 1.769531 -14.449219 1.734375 -14.347656 C 1.699219 -14.277344 1.699219 -14.246094 1.699219 -14.175781 C 1.699219 -14.109375 1.664062 -14.039062 1.632812 -14.007812 C 1.5625 -13.9375 1.53125 -13.769531 1.53125 -13.566406 C 1.53125 -13.429688 1.460938 -13.054688 1.394531 -12.511719 C 1.324219 -11.933594 1.292969 -11.492188 1.359375 -11.21875 C 1.359375 -11.050781 1.292969 -10.878906 1.222656 -10.675781 C 1.222656 -10.640625 1.191406 -10.574219 1.15625 -10.503906 C 1.089844 -10.402344 1.054688 -10.335938 1.054688 -10.300781 C 1.054688 -10.265625 1.054688 -10.234375 1.089844 -10.164062 C 1.089844 -10.097656 1.15625 -10.027344 1.222656 -9.996094 L 1.222656 -9.6875 C 1.222656 -9.621094 1.191406 -9.484375 1.191406 -9.347656 C 1.191406 -9.179688 1.191406 -9.042969 1.222656 -8.90625 C 1.222656 -8.769531 1.292969 -8.667969 1.359375 -8.566406 C 1.496094 -8.328125 1.460938 -8.125 1.257812 -7.921875 C 1.191406 -7.851562 1.15625 -7.75 1.222656 -7.648438 C 1.429688 -7.039062 1.53125 -6.628906 1.597656 -6.460938 C 1.664062 -6.253906 1.769531 -5.914062 1.972656 -5.441406 C 2.140625 -4.964844 2.277344 -4.589844 2.378906 -4.316406 C 2.378906 -4.25 2.414062 -4.148438 2.480469 -3.976562 C 2.550781 -3.808594 2.582031 -3.707031 2.652344 -3.636719 C 2.992188 -3.160156 3.367188 -2.71875 3.839844 -2.3125 C 3.945312 -2.210938 4.351562 -1.835938 5.101562 -1.222656 C 5.203125 -1.089844 5.371094 -0.984375 5.574219 -0.953125 C 5.984375 -0.851562 6.390625 -0.679688 6.765625 -0.40625 C 7.308594 -0.273438 7.75 -0.238281 8.089844 -0.238281 C 8.566406 -0.238281 9.042969 -0.101562 9.484375 0.101562 Z M 10.472656 0.375 "/></g></g></g><g fill="#f94616" fill-opacity="1"><g transform="translate(188.263756, 221.599994)"><g><path d="M 16.558594 0.171875 L 17.203125 -0.304688 C 17.203125 -0.644531 17.203125 -1.089844 17.203125 -1.597656 C 17.203125 -2.074219 17.238281 -2.480469 17.371094 -2.820312 C 17.40625 -2.890625 17.40625 -3.027344 17.339844 -3.160156 C 17.269531 -3.296875 17.238281 -3.433594 17.238281 -3.5 C 17.238281 -3.570312 17.269531 -3.671875 17.304688 -3.839844 C 17.304688 -3.976562 17.339844 -4.113281 17.371094 -4.214844 C 17.40625 -4.25 17.40625 -4.285156 17.371094 -4.351562 C 17.167969 -4.65625 17.132812 -4.964844 17.304688 -5.234375 C 17.40625 -5.304688 17.40625 -5.441406 17.339844 -5.675781 C 17.269531 -5.882812 17.238281 -6.015625 17.238281 -6.085938 L 17.238281 -6.1875 C 17.238281 -6.1875 17.238281 -6.222656 17.269531 -6.222656 C 17.339844 -6.253906 17.371094 -6.425781 17.371094 -6.730469 L 17.371094 -9.6875 C 17.371094 -9.6875 17.339844 -9.859375 17.304688 -10.199219 C 17.238281 -10.472656 17.238281 -10.742188 17.304688 -11.015625 C 17.40625 -11.253906 17.40625 -11.523438 17.304688 -11.796875 C 17.238281 -12.101562 17.203125 -12.273438 17.269531 -12.339844 C 17.339844 -12.410156 17.371094 -12.578125 17.371094 -12.886719 C 17.371094 -12.886719 17.40625 -13.226562 17.40625 -13.835938 L 17.371094 -14.753906 C 17.371094 -14.992188 17.339844 -15.128906 17.339844 -15.164062 C 17.132812 -15.433594 17.132812 -15.773438 17.269531 -16.183594 C 17.304688 -16.285156 17.339844 -16.453125 17.339844 -16.660156 L 17.371094 -16.929688 C 17.40625 -17.304688 17.339844 -18.222656 17.203125 -19.652344 C 17.132812 -19.71875 17.066406 -19.855469 16.964844 -19.992188 C 16.863281 -20.125 16.792969 -20.195312 16.792969 -20.261719 C 16.523438 -20.261719 16.183594 -20.296875 15.707031 -20.332031 C 15.230469 -20.363281 14.925781 -20.398438 14.722656 -20.464844 C 14.449219 -20.332031 14.175781 -20.195312 13.871094 -20.023438 C 13.769531 -19.820312 13.667969 -19.515625 13.53125 -19.105469 L 13.632812 -18.597656 C 13.667969 -18.394531 13.667969 -18.289062 13.632812 -18.222656 C 13.53125 -18.050781 13.496094 -17.609375 13.496094 -16.929688 L 13.496094 -12.816406 C 13.496094 -12.339844 13.53125 -12.070312 13.667969 -12 C 13.667969 -10.980469 13.496094 -10.265625 13.15625 -9.859375 C 12.679688 -9.757812 12.308594 -9.925781 12.035156 -10.335938 C 11.390625 -11.183594 11.015625 -11.660156 10.945312 -11.761719 C 10.675781 -12.070312 10.503906 -12.273438 10.503906 -12.339844 C 10.300781 -12.75 9.757812 -13.394531 8.941406 -14.347656 C 8.464844 -14.789062 8.226562 -15.128906 8.160156 -15.367188 C 8.023438 -15.84375 7.683594 -16.285156 7.207031 -16.761719 C 6.96875 -16.964844 6.730469 -17.238281 6.527344 -17.507812 C 6.324219 -17.78125 6.085938 -18.121094 5.847656 -18.460938 C 5.609375 -18.800781 5.441406 -19.074219 5.304688 -19.277344 C 4.691406 -20.09375 3.945312 -20.464844 3.058594 -20.464844 C 2.921875 -20.464844 2.789062 -20.398438 2.582031 -20.296875 C 2.378906 -20.195312 2.242188 -20.125 2.140625 -20.125 C 2.109375 -20.023438 2.074219 -19.71875 2.003906 -19.242188 L 2.003906 -18.15625 C 2.140625 -18.050781 2.175781 -17.882812 2.109375 -17.644531 C 2.003906 -17.371094 1.972656 -17.203125 2.003906 -17.132812 C 2.003906 -16.863281 2.003906 -16.558594 2.003906 -16.148438 C 1.972656 -15.742188 2.003906 -15.402344 2.140625 -15.164062 C 2.242188 -14.925781 2.242188 -14.6875 2.140625 -14.449219 C 2.074219 -14.347656 2.003906 -14.246094 2.003906 -14.144531 C 1.972656 -14.039062 1.972656 -13.9375 1.972656 -13.804688 C 1.972656 -13.667969 2.003906 -13.597656 2.003906 -13.53125 C 2.003906 -13.191406 2.039062 -12.988281 2.140625 -12.917969 C 2.210938 -12.816406 2.175781 -12.714844 2.109375 -12.578125 C 2.039062 -12.441406 2.003906 -12.339844 2.003906 -12.308594 L 2.003906 -10.980469 C 2.074219 -10.503906 2.109375 -10.234375 2.140625 -10.199219 C 2.210938 -9.996094 2.210938 -9.722656 2.074219 -9.417969 C 1.902344 -9.007812 1.902344 -8.636719 2.074219 -8.296875 C 2.175781 -7.886719 2.210938 -7.582031 2.140625 -7.34375 C 2.109375 -7.242188 2.074219 -6.765625 2.003906 -5.914062 L 2.003906 -4.214844 C 2.003906 -3.945312 1.972656 -3.773438 1.972656 -3.773438 C 1.902344 -3.5 1.871094 -3.296875 1.871094 -3.230469 C 1.871094 -3.128906 1.902344 -2.957031 1.972656 -2.6875 C 2.039062 -2.414062 2.109375 -2.242188 2.140625 -2.175781 C 1.9375 -1.902344 1.9375 -1.53125 2.109375 -1.121094 C 2.109375 -1.019531 2.140625 -0.882812 2.175781 -0.746094 C 2.175781 -0.578125 2.210938 -0.441406 2.277344 -0.304688 C 2.3125 -0.171875 2.378906 -0.0664062 2.515625 0 L 5.234375 0 L 5.882812 -0.679688 L 5.882812 -6.832031 C 5.882812 -6.902344 5.847656 -7.003906 5.8125 -7.140625 C 5.746094 -7.277344 5.746094 -7.34375 5.746094 -7.378906 L 5.847656 -7.480469 C 5.882812 -7.683594 5.882812 -8.058594 5.882812 -8.601562 C 5.847656 -9.113281 5.8125 -9.484375 5.78125 -9.722656 C 5.746094 -9.792969 5.746094 -9.925781 5.8125 -10.132812 C 5.882812 -10.371094 5.914062 -10.503906 5.984375 -10.574219 C 6.050781 -10.640625 6.222656 -10.742188 6.492188 -10.878906 C 6.527344 -10.84375 6.59375 -10.8125 6.699219 -10.777344 C 6.800781 -10.742188 6.867188 -10.710938 6.902344 -10.675781 C 7.039062 -10.402344 7.277344 -10.027344 7.648438 -9.554688 C 8.023438 -9.078125 8.296875 -8.738281 8.429688 -8.464844 C 8.464844 -8.328125 8.566406 -8.195312 8.703125 -8.058594 C 8.839844 -7.921875 8.90625 -7.820312 8.941406 -7.785156 C 9.078125 -7.582031 9.28125 -7.34375 9.585938 -7.039062 C 9.894531 -6.699219 10.164062 -6.425781 10.371094 -6.152344 C 10.574219 -5.882812 10.710938 -5.574219 10.84375 -5.269531 L 10.878906 -5.234375 C 11.152344 -4.964844 11.492188 -4.523438 11.898438 -3.910156 C 12 -3.707031 12.238281 -3.398438 12.613281 -2.957031 C 12.953125 -2.480469 13.226562 -2.109375 13.359375 -1.835938 C 13.429688 -1.664062 13.597656 -1.460938 13.835938 -1.222656 C 14.074219 -0.984375 14.246094 -0.816406 14.3125 -0.746094 C 14.484375 -0.40625 14.753906 -0.171875 15.09375 0 C 15.164062 0 15.332031 0 15.535156 0 C 15.742188 0 15.945312 0 16.082031 0 C 16.21875 0.0351562 16.386719 0.101562 16.558594 0.171875 Z M 16.558594 0.171875 "/></g></g></g><g fill="#f94616" fill-opacity="1"><g transform="translate(210.939553, 221.599994)"><g><path d="M 2.921875 0 C 3.332031 -0.0664062 3.738281 -0.0664062 4.214844 -0.0351562 C 4.625 -0.0351562 5.03125 -0.203125 5.507812 -0.578125 C 5.542969 -0.578125 5.609375 -0.644531 5.710938 -0.746094 C 5.8125 -0.851562 5.914062 -0.953125 6.015625 -1.019531 C 5.949219 -1.089844 5.949219 -1.222656 5.949219 -1.359375 C 5.949219 -1.496094 5.914062 -1.632812 5.847656 -1.734375 C 5.675781 -1.9375 5.675781 -2.109375 5.8125 -2.3125 C 5.882812 -2.414062 5.949219 -2.71875 5.949219 -3.230469 C 5.949219 -4.148438 5.882812 -4.726562 5.8125 -4.964844 C 5.8125 -5.101562 5.8125 -5.542969 5.78125 -6.222656 C 5.710938 -6.902344 5.78125 -7.34375 5.949219 -7.511719 C 5.949219 -7.511719 5.984375 -7.582031 5.984375 -7.648438 L 5.949219 -7.75 C 5.8125 -8.226562 5.8125 -8.703125 5.949219 -9.246094 C 5.984375 -9.554688 5.984375 -9.757812 5.914062 -9.824219 C 5.847656 -9.894531 5.8125 -10.132812 5.8125 -10.472656 C 5.746094 -10.878906 5.8125 -11.152344 5.949219 -11.289062 C 5.914062 -11.492188 5.914062 -11.933594 5.949219 -12.613281 C 5.949219 -13.292969 5.914062 -13.734375 5.8125 -13.90625 C 5.78125 -13.972656 5.78125 -14.039062 5.8125 -14.144531 C 6.015625 -14.484375 6.015625 -14.890625 5.8125 -15.367188 C 5.746094 -15.402344 5.78125 -15.570312 5.847656 -15.84375 C 6.015625 -16.386719 5.984375 -16.863281 5.78125 -17.269531 C 5.847656 -17.269531 5.914062 -17.339844 5.914062 -17.40625 L 5.914062 -19.652344 C 5.78125 -20.058594 5.40625 -20.433594 4.828125 -20.703125 C 4.589844 -20.636719 4.214844 -20.601562 3.707031 -20.570312 C 3.195312 -20.535156 2.820312 -20.5 2.582031 -20.5 L 2.277344 -20.195312 C 2.140625 -19.855469 2.074219 -19.617188 2.074219 -19.515625 C 2.039062 -19.277344 2.039062 -19.074219 2.074219 -18.867188 C 2.140625 -18.324219 2.175781 -18.050781 2.210938 -18.019531 C 2.3125 -17.746094 2.3125 -17.476562 2.210938 -17.203125 C 2.109375 -17.066406 2.074219 -16.691406 2.074219 -16.148438 C 2.003906 -15.605469 2.003906 -15.09375 2.074219 -14.585938 C 2.074219 -14.449219 2.039062 -14.277344 2.039062 -14.074219 C 2.039062 -13.835938 2.039062 -13.632812 2.074219 -13.464844 C 2.074219 -13.292969 2.140625 -13.121094 2.210938 -12.988281 C 2.347656 -12.816406 2.3125 -12.648438 2.175781 -12.511719 C 2.140625 -12.476562 2.109375 -12.273438 2.074219 -11.933594 C 2.003906 -11.730469 2.039062 -11.421875 2.109375 -11.015625 C 2.175781 -10.605469 2.210938 -10.371094 2.210938 -10.300781 C 2.242188 -9.484375 2.242188 -8.667969 2.210938 -7.886719 C 2.210938 -6.867188 2.140625 -6.085938 2.074219 -5.574219 C 2.003906 -5.132812 2.003906 -4.523438 2.109375 -3.707031 C 2.175781 -2.890625 2.210938 -2.277344 2.210938 -1.902344 C 2.210938 -1.769531 2.175781 -1.597656 2.140625 -1.359375 C 2.109375 -1.121094 2.109375 -0.953125 2.109375 -0.882812 C 2.140625 -0.816406 2.175781 -0.714844 2.242188 -0.578125 C 2.3125 -0.40625 2.347656 -0.304688 2.414062 -0.238281 C 2.480469 -0.203125 2.550781 -0.171875 2.6875 -0.101562 C 2.789062 -0.0351562 2.855469 0 2.921875 0 Z M 2.921875 0 "/></g></g></g><g fill="#f94616" fill-opacity="1"><g transform="translate(222.736592, 221.599994)"><g><path d="M 6.59375 0.203125 L 7.785156 0.203125 C 8.125 0.203125 8.566406 0.136719 9.113281 0 C 9.585938 -0.304688 9.722656 -0.746094 9.554688 -1.292969 C 9.519531 -1.429688 9.484375 -1.5625 9.484375 -1.769531 C 9.453125 -1.972656 9.417969 -2.140625 9.417969 -2.277344 C 9.382812 -2.347656 9.417969 -2.480469 9.484375 -2.652344 C 9.554688 -2.789062 9.585938 -2.890625 9.585938 -2.957031 C 9.585938 -3.128906 9.519531 -3.367188 9.417969 -3.636719 C 9.417969 -3.671875 9.417969 -3.707031 9.453125 -3.707031 C 9.585938 -3.910156 9.585938 -4.183594 9.453125 -4.589844 C 9.316406 -4.691406 9.316406 -4.792969 9.453125 -4.929688 C 9.519531 -4.996094 9.585938 -5.234375 9.585938 -5.644531 C 9.554688 -6.085938 9.554688 -6.664062 9.585938 -7.410156 C 9.585938 -8.160156 9.554688 -8.738281 9.453125 -9.214844 C 9.382812 -9.484375 9.417969 -9.894531 9.554688 -10.4375 C 9.621094 -10.84375 9.621094 -11.457031 9.585938 -12.308594 C 9.554688 -12.441406 9.484375 -12.648438 9.417969 -12.917969 C 9.347656 -13.191406 9.28125 -13.394531 9.28125 -13.464844 C 9.28125 -13.464844 9.316406 -13.464844 9.316406 -13.496094 C 9.585938 -14.144531 9.621094 -14.824219 9.484375 -15.503906 L 9.453125 -15.773438 C 9.554688 -15.84375 9.585938 -16.011719 9.585938 -16.351562 C 9.585938 -16.660156 9.585938 -16.863281 9.621094 -16.964844 C 9.6875 -17 9.824219 -17.066406 9.960938 -17.167969 C 10.097656 -17.269531 10.199219 -17.339844 10.265625 -17.40625 L 12.101562 -17.40625 C 12.308594 -17.40625 12.476562 -17.371094 12.546875 -17.371094 C 12.953125 -17.238281 13.257812 -17.238281 13.464844 -17.304688 C 13.632812 -17.371094 13.835938 -17.578125 14.074219 -17.917969 L 14.074219 -19.921875 C 14.007812 -19.921875 13.804688 -20.09375 13.394531 -20.398438 L 8.160156 -20.398438 C 7.71875 -20.398438 7.445312 -20.332031 7.378906 -20.261719 C 7.34375 -20.226562 7.308594 -20.226562 7.308594 -20.226562 C 7.277344 -20.226562 7.242188 -20.226562 7.171875 -20.261719 C 7.105469 -20.261719 7.070312 -20.296875 7.039062 -20.296875 C 6.492188 -20.433594 5.882812 -20.464844 5.269531 -20.332031 C 4.929688 -20.226562 4.625 -20.226562 4.351562 -20.332031 C 4.148438 -20.363281 4.046875 -20.398438 4.011719 -20.398438 L 1.769531 -20.398438 C 1.15625 -19.921875 0.882812 -19.277344 0.917969 -18.527344 L 1.019531 -18.425781 L 1.054688 -18.359375 C 1.257812 -18.019531 1.5625 -17.746094 1.902344 -17.542969 C 2.242188 -17.339844 2.582031 -17.304688 2.921875 -17.441406 C 3.265625 -17.578125 3.707031 -17.609375 4.183594 -17.507812 C 4.25 -17.476562 4.386719 -17.441406 4.589844 -17.441406 C 4.757812 -17.441406 4.894531 -17.40625 5.03125 -17.371094 C 5.132812 -17.339844 5.234375 -17.269531 5.335938 -17.167969 C 5.441406 -17.03125 5.542969 -16.929688 5.609375 -16.792969 C 5.675781 -16.660156 5.710938 -16.558594 5.710938 -16.421875 L 5.710938 -15.605469 C 5.710938 -15.402344 5.710938 -15.265625 5.78125 -15.128906 C 5.914062 -14.824219 5.914062 -14.585938 5.8125 -14.414062 C 5.644531 -14.007812 5.644531 -13.667969 5.847656 -13.394531 C 5.847656 -13.328125 5.847656 -13.292969 5.8125 -13.226562 C 5.78125 -13.15625 5.78125 -13.089844 5.78125 -13.054688 C 5.644531 -12.613281 5.675781 -12.273438 5.847656 -12.035156 C 5.644531 -11.695312 5.644531 -11.390625 5.78125 -11.152344 C 5.914062 -10.8125 5.914062 -10.472656 5.8125 -10.164062 C 5.746094 -9.996094 5.710938 -9.792969 5.710938 -9.519531 C 5.710938 -9.316406 5.675781 -9.078125 5.675781 -8.769531 C 5.675781 -8.429688 5.675781 -8.160156 5.675781 -7.886719 C 5.675781 -7.617188 5.746094 -7.34375 5.8125 -7.140625 C 5.8125 -7.070312 5.8125 -6.664062 5.746094 -5.984375 C 5.710938 -5.78125 5.710938 -4.929688 5.710938 -3.367188 C 5.710938 -3.296875 5.710938 -3.265625 5.78125 -3.195312 C 5.8125 -3.128906 5.847656 -3.09375 5.847656 -3.09375 C 5.8125 -3.058594 5.78125 -2.890625 5.710938 -2.617188 L 5.609375 -2.347656 C 5.574219 -2.242188 5.542969 -2.175781 5.542969 -2.140625 C 5.644531 -2.074219 5.675781 -1.9375 5.675781 -1.699219 C 5.675781 -1.429688 5.675781 -1.292969 5.710938 -1.222656 C 5.710938 -1.191406 5.710938 -1.089844 5.746094 -0.953125 C 5.746094 -0.78125 5.78125 -0.679688 5.8125 -0.644531 C 5.8125 -0.613281 5.847656 -0.542969 5.882812 -0.40625 C 5.914062 -0.273438 5.949219 -0.203125 6.015625 -0.136719 C 6.085938 -0.0664062 6.152344 -0.0351562 6.253906 0.0351562 C 6.324219 0.101562 6.460938 0.171875 6.59375 0.203125 Z M 6.59375 0.203125 "/></g></g></g><g fill="#f94616" fill-opacity="1"><g transform="translate(241.53683, 221.599994)"><g><path d="M 2.921875 0 C 3.332031 -0.0664062 3.738281 -0.0664062 4.214844 -0.0351562 C 4.625 -0.0351562 5.03125 -0.203125 5.507812 -0.578125 C 5.542969 -0.578125 5.609375 -0.644531 5.710938 -0.746094 C 5.8125 -0.851562 5.914062 -0.953125 6.015625 -1.019531 C 5.949219 -1.089844 5.949219 -1.222656 5.949219 -1.359375 C 5.949219 -1.496094 5.914062 -1.632812 5.847656 -1.734375 C 5.675781 -1.9375 5.675781 -2.109375 5.8125 -2.3125 C 5.882812 -2.414062 5.949219 -2.71875 5.949219 -3.230469 C 5.949219 -4.148438 5.882812 -4.726562 5.8125 -4.964844 C 5.8125 -5.101562 5.8125 -5.542969 5.78125 -6.222656 C 5.710938 -6.902344 5.78125 -7.34375 5.949219 -7.511719 C 5.949219 -7.511719 5.984375 -7.582031 5.984375 -7.648438 L 5.949219 -7.75 C 5.8125 -8.226562 5.8125 -8.703125 5.949219 -9.246094 C 5.984375 -9.554688 5.984375 -9.757812 5.914062 -9.824219 C 5.847656 -9.894531 5.8125 -10.132812 5.8125 -10.472656 C 5.746094 -10.878906 5.8125 -11.152344 5.949219 -11.289062 C 5.914062 -11.492188 5.914062 -11.933594 5.949219 -12.613281 C 5.949219 -13.292969 5.914062 -13.734375 5.8125 -13.90625 C 5.78125 -13.972656 5.78125 -14.039062 5.8125 -14.144531 C 6.015625 -14.484375 6.015625 -14.890625 5.8125 -15.367188 C 5.746094 -15.402344 5.78125 -15.570312 5.847656 -15.84375 C 6.015625 -16.386719 5.984375 -16.863281 5.78125 -17.269531 C 5.847656 -17.269531 5.914062 -17.339844 5.914062 -17.40625 L 5.914062 -19.652344 C 5.78125 -20.058594 5.40625 -20.433594 4.828125 -20.703125 C 4.589844 -20.636719 4.214844 -20.601562 3.707031 -20.570312 C 3.195312 -20.535156 2.820312 -20.5 2.582031 -20.5 L 2.277344 -20.195312 C 2.140625 -19.855469 2.074219 -19.617188 2.074219 -19.515625 C 2.039062 -19.277344 2.039062 -19.074219 2.074219 -18.867188 C 2.140625 -18.324219 2.175781 -18.050781 2.210938 -18.019531 C 2.3125 -17.746094 2.3125 -17.476562 2.210938 -17.203125 C 2.109375 -17.066406 2.074219 -16.691406 2.074219 -16.148438 C 2.003906 -15.605469 2.003906 -15.09375 2.074219 -14.585938 C 2.074219 -14.449219 2.039062 -14.277344 2.039062 -14.074219 C 2.039062 -13.835938 2.039062 -13.632812 2.074219 -13.464844 C 2.074219 -13.292969 2.140625 -13.121094 2.210938 -12.988281 C 2.347656 -12.816406 2.3125 -12.648438 2.175781 -12.511719 C 2.140625 -12.476562 2.109375 -12.273438 2.074219 -11.933594 C 2.003906 -11.730469 2.039062 -11.421875 2.109375 -11.015625 C 2.175781 -10.605469 2.210938 -10.371094 2.210938 -10.300781 C 2.242188 -9.484375 2.242188 -8.667969 2.210938 -7.886719 C 2.210938 -6.867188 2.140625 -6.085938 2.074219 -5.574219 C 2.003906 -5.132812 2.003906 -4.523438 2.109375 -3.707031 C 2.175781 -2.890625 2.210938 -2.277344 2.210938 -1.902344 C 2.210938 -1.769531 2.175781 -1.597656 2.140625 -1.359375 C 2.109375 -1.121094 2.109375 -0.953125 2.109375 -0.882812 C 2.140625 -0.816406 2.175781 -0.714844 2.242188 -0.578125 C 2.3125 -0.40625 2.347656 -0.304688 2.414062 -0.238281 C 2.480469 -0.203125 2.550781 -0.171875 2.6875 -0.101562 C 2.789062 -0.0351562 2.855469 0 2.921875 0 Z M 2.921875 0 "/></g></g></g><g fill="#f94616" fill-opacity="1"><g transform="translate(253.333868, 221.599994)"><g><path d="M 8.839844 0.304688 C 8.875 0.304688 8.941406 0.304688 9.078125 0.238281 C 9.179688 0.203125 9.28125 0.171875 9.382812 0.171875 L 9.824219 0.203125 C 10.097656 0.203125 10.265625 0.203125 10.265625 0.171875 C 10.371094 0.171875 10.503906 0.101562 10.710938 0 C 10.914062 -0.0664062 11.015625 -0.136719 11.050781 -0.136719 C 11.898438 -0.476562 12.441406 -0.78125 12.714844 -0.984375 C 12.886719 -1.121094 13.15625 -1.292969 13.496094 -1.53125 C 13.835938 -1.769531 14.074219 -1.972656 14.246094 -2.109375 C 14.515625 -2.347656 14.652344 -2.652344 14.722656 -2.992188 L 14.824219 -3.332031 C 14.890625 -3.5 14.925781 -3.636719 14.992188 -3.738281 C 15.46875 -4.65625 15.671875 -5.472656 15.671875 -6.222656 C 15.671875 -6.359375 15.671875 -6.460938 15.707031 -6.492188 C 15.910156 -7.070312 16.011719 -7.511719 15.945312 -7.785156 C 15.875 -7.957031 15.910156 -8.195312 15.980469 -8.5 C 16.046875 -8.804688 16.113281 -9.042969 16.113281 -9.214844 C 16.011719 -9.824219 15.980469 -10.472656 15.980469 -11.183594 C 15.910156 -11.832031 15.910156 -12.476562 15.980469 -13.121094 C 15.980469 -13.597656 15.910156 -13.972656 15.808594 -14.175781 C 15.707031 -14.3125 15.671875 -14.550781 15.671875 -14.855469 L 15.671875 -15.640625 C 15.503906 -15.910156 15.402344 -16.082031 15.367188 -16.148438 C 15.027344 -16.828125 14.753906 -17.339844 14.617188 -17.710938 C 14.414062 -18.222656 14.109375 -18.5625 13.632812 -18.765625 C 13.429688 -18.835938 13.257812 -19.003906 13.121094 -19.242188 C 12.917969 -19.582031 12.546875 -19.820312 12.070312 -19.957031 C 11.796875 -20.023438 11.457031 -20.125 10.980469 -20.296875 C 10.503906 -20.433594 10.132812 -20.535156 9.859375 -20.601562 C 9.347656 -20.671875 8.804688 -20.671875 8.261719 -20.601562 C 7.582031 -20.433594 7.105469 -20.363281 6.902344 -20.433594 L 6.492188 -20.433594 C 5.132812 -19.957031 4.214844 -19.515625 3.738281 -19.105469 C 3.09375 -18.527344 2.550781 -17.679688 2.074219 -16.523438 C 2.074219 -16.011719 1.9375 -15.503906 1.664062 -14.992188 C 1.359375 -14.585938 1.324219 -14.277344 1.597656 -14.039062 C 1.5625 -13.972656 1.53125 -13.871094 1.53125 -13.769531 C 1.53125 -13.667969 1.496094 -13.597656 1.460938 -13.566406 C 1.121094 -13.054688 1.089844 -12.648438 1.324219 -12.339844 L 1.324219 -12.207031 C 1.222656 -12.101562 1.191406 -11.96875 1.191406 -11.796875 C 1.191406 -11.59375 1.15625 -11.492188 1.15625 -11.421875 C 1.15625 -11.320312 1.089844 -11.183594 1.019531 -10.980469 C 1.019531 -10.945312 1.054688 -10.914062 1.054688 -10.914062 C 1.324219 -10.132812 1.394531 -9.519531 1.292969 -9.078125 L 1.191406 -7.957031 L 1.191406 -7.34375 C 1.121094 -7.039062 1.257812 -6.527344 1.597656 -5.847656 C 1.597656 -5.710938 1.632812 -5.472656 1.664062 -5.203125 C 1.664062 -4.894531 1.699219 -4.691406 1.769531 -4.554688 C 1.835938 -4.214844 1.9375 -3.945312 2.140625 -3.738281 C 2.347656 -3.5 2.582031 -3.128906 2.820312 -2.582031 C 2.855469 -2.480469 2.921875 -2.378906 3.058594 -2.242188 C 3.160156 -2.109375 3.230469 -2.039062 3.296875 -1.972656 C 3.433594 -1.769531 3.636719 -1.5625 3.839844 -1.394531 C 4.046875 -1.222656 4.25 -1.089844 4.417969 -0.984375 C 4.554688 -0.882812 4.792969 -0.746094 5.132812 -0.613281 L 5.8125 -0.273438 C 5.8125 -0.238281 5.984375 -0.203125 6.253906 -0.136719 C 6.425781 -0.0664062 6.699219 -0.0351562 7.039062 0 C 7.378906 0.0664062 7.648438 0.101562 7.851562 0.171875 C 8.125 0.304688 8.464844 0.375 8.839844 0.304688 Z M 8.023438 -2.957031 C 7.378906 -3.128906 6.867188 -3.398438 6.492188 -3.808594 C 5.984375 -4.386719 5.710938 -4.863281 5.644531 -5.269531 L 5.609375 -5.335938 C 5.472656 -5.441406 5.40625 -5.574219 5.335938 -5.746094 C 5.269531 -5.882812 5.203125 -6.085938 5.167969 -6.289062 C 5.132812 -6.492188 5.101562 -6.664062 5.066406 -6.800781 C 4.996094 -6.933594 4.964844 -7.171875 4.964844 -7.511719 C 4.929688 -7.820312 4.894531 -8.058594 4.894531 -8.226562 C 4.863281 -8.363281 4.863281 -8.464844 4.863281 -8.566406 C 4.863281 -8.667969 4.863281 -8.769531 4.863281 -8.90625 C 4.863281 -9.007812 4.828125 -9.113281 4.792969 -9.214844 C 4.726562 -9.214844 4.726562 -9.28125 4.757812 -9.484375 C 4.792969 -9.6875 4.828125 -9.792969 4.828125 -9.859375 C 4.863281 -10.371094 4.863281 -10.710938 4.828125 -10.84375 C 4.757812 -11.183594 4.757812 -11.355469 4.792969 -11.390625 C 4.894531 -11.660156 4.929688 -11.96875 4.894531 -12.308594 L 4.894531 -13.191406 C 5.101562 -13.394531 5.203125 -13.667969 5.203125 -14.039062 C 5.167969 -14.484375 5.304688 -14.957031 5.644531 -15.433594 C 5.710938 -15.503906 5.746094 -15.570312 5.8125 -15.671875 C 5.949219 -16.320312 6.492188 -16.898438 7.445312 -17.441406 C 7.582031 -17.507812 7.820312 -17.609375 8.160156 -17.679688 L 8.667969 -17.746094 C 8.976562 -17.816406 9.347656 -17.710938 9.824219 -17.441406 C 9.894531 -17.371094 9.960938 -17.339844 10.097656 -17.269531 C 10.199219 -17.203125 10.265625 -17.167969 10.300781 -17.167969 C 10.335938 -17.132812 10.371094 -17.101562 10.4375 -17.066406 C 10.503906 -17.03125 10.539062 -17 10.574219 -16.964844 C 10.605469 -16.929688 10.640625 -16.898438 10.710938 -16.863281 C 10.742188 -16.828125 10.777344 -16.792969 10.84375 -16.726562 C 10.878906 -16.660156 10.914062 -16.558594 10.980469 -16.488281 C 11.015625 -16.421875 11.082031 -16.320312 11.183594 -16.21875 C 11.253906 -16.082031 11.320312 -15.945312 11.390625 -15.84375 C 11.457031 -15.742188 11.492188 -15.640625 11.558594 -15.570312 C 11.59375 -15.503906 11.628906 -15.402344 11.660156 -15.332031 C 11.695312 -15.230469 11.730469 -15.164062 11.761719 -15.128906 C 11.761719 -15.0625 11.796875 -14.992188 11.832031 -14.890625 C 11.863281 -14.753906 11.898438 -14.6875 11.898438 -14.617188 L 11.96875 -14.277344 C 12 -14.109375 12.035156 -13.972656 12.070312 -13.90625 C 12.136719 -13.632812 12.171875 -13.292969 12.238281 -12.886719 C 12.308594 -12.441406 12.339844 -12.136719 12.410156 -11.96875 C 12.410156 -11.898438 12.410156 -11.796875 12.441406 -11.660156 C 12.476562 -11.523438 12.511719 -11.457031 12.511719 -11.390625 C 12.511719 -11.320312 12.511719 -11.21875 12.511719 -11.117188 C 12.410156 -10.914062 12.375 -10.539062 12.375 -9.996094 C 12.375 -9.417969 12.375 -9.042969 12.375 -8.875 C 12.375 -8.769531 12.375 -8.667969 12.375 -8.535156 C 12.375 -8.398438 12.375 -8.261719 12.375 -8.160156 C 12.375 -8.058594 12.339844 -7.957031 12.273438 -7.851562 C 12.207031 -7.75 12.171875 -7.582031 12.171875 -7.378906 C 12.171875 -7.140625 12.136719 -6.96875 12.101562 -6.902344 C 12.035156 -6.765625 11.96875 -6.5625 11.96875 -6.289062 C 11.96875 -6.015625 11.933594 -5.847656 11.933594 -5.78125 C 11.832031 -5.40625 11.59375 -4.894531 11.21875 -4.25 C 11.117188 -4.113281 10.980469 -3.945312 10.777344 -3.773438 C 10.574219 -3.605469 10.4375 -3.5 10.402344 -3.433594 C 10.335938 -3.398438 10.335938 -3.367188 10.335938 -3.367188 C 10.335938 -3.332031 10.300781 -3.332031 10.265625 -3.332031 C 10.132812 -3.230469 9.960938 -3.160156 9.6875 -3.09375 C 9.417969 -3.027344 9.214844 -2.992188 9.144531 -2.957031 C 8.804688 -2.820312 8.429688 -2.820312 8.023438 -2.957031 Z M 8.023438 -2.957031 "/></g></g></g><g fill="#f94616" fill-opacity="1"><g transform="translate(274.343857, 221.599994)"><g><path d="M 16.558594 0.171875 L 17.203125 -0.304688 C 17.203125 -0.644531 17.203125 -1.089844 17.203125 -1.597656 C 17.203125 -2.074219 17.238281 -2.480469 17.371094 -2.820312 C 17.40625 -2.890625 17.40625 -3.027344 17.339844 -3.160156 C 17.269531 -3.296875 17.238281 -3.433594 17.238281 -3.5 C 17.238281 -3.570312 17.269531 -3.671875 17.304688 -3.839844 C 17.304688 -3.976562 17.339844 -4.113281 17.371094 -4.214844 C 17.40625 -4.25 17.40625 -4.285156 17.371094 -4.351562 C 17.167969 -4.65625 17.132812 -4.964844 17.304688 -5.234375 C 17.40625 -5.304688 17.40625 -5.441406 17.339844 -5.675781 C 17.269531 -5.882812 17.238281 -6.015625 17.238281 -6.085938 L 17.238281 -6.1875 C 17.238281 -6.1875 17.238281 -6.222656 17.269531 -6.222656 C 17.339844 -6.253906 17.371094 -6.425781 17.371094 -6.730469 L 17.371094 -9.6875 C 17.371094 -9.6875 17.339844 -9.859375 17.304688 -10.199219 C 17.238281 -10.472656 17.238281 -10.742188 17.304688 -11.015625 C 17.40625 -11.253906 17.40625 -11.523438 17.304688 -11.796875 C 17.238281 -12.101562 17.203125 -12.273438 17.269531 -12.339844 C 17.339844 -12.410156 17.371094 -12.578125 17.371094 -12.886719 C 17.371094 -12.886719 17.40625 -13.226562 17.40625 -13.835938 L 17.371094 -14.753906 C 17.371094 -14.992188 17.339844 -15.128906 17.339844 -15.164062 C 17.132812 -15.433594 17.132812 -15.773438 17.269531 -16.183594 C 17.304688 -16.285156 17.339844 -16.453125 17.339844 -16.660156 L 17.371094 -16.929688 C 17.40625 -17.304688 17.339844 -18.222656 17.203125 -19.652344 C 17.132812 -19.71875 17.066406 -19.855469 16.964844 -19.992188 C 16.863281 -20.125 16.792969 -20.195312 16.792969 -20.261719 C 16.523438 -20.261719 16.183594 -20.296875 15.707031 -20.332031 C 15.230469 -20.363281 14.925781 -20.398438 14.722656 -20.464844 C 14.449219 -20.332031 14.175781 -20.195312 13.871094 -20.023438 C 13.769531 -19.820312 13.667969 -19.515625 13.53125 -19.105469 L 13.632812 -18.597656 C 13.667969 -18.394531 13.667969 -18.289062 13.632812 -18.222656 C 13.53125 -18.050781 13.496094 -17.609375 13.496094 -16.929688 L 13.496094 -12.816406 C 13.496094 -12.339844 13.53125 -12.070312 13.667969 -12 C 13.667969 -10.980469 13.496094 -10.265625 13.15625 -9.859375 C 12.679688 -9.757812 12.308594 -9.925781 12.035156 -10.335938 C 11.390625 -11.183594 11.015625 -11.660156 10.945312 -11.761719 C 10.675781 -12.070312 10.503906 -12.273438 10.503906 -12.339844 C 10.300781 -12.75 9.757812 -13.394531 8.941406 -14.347656 C 8.464844 -14.789062 8.226562 -15.128906 8.160156 -15.367188 C 8.023438 -15.84375 7.683594 -16.285156 7.207031 -16.761719 C 6.96875 -16.964844 6.730469 -17.238281 6.527344 -17.507812 C 6.324219 -17.78125 6.085938 -18.121094 5.847656 -18.460938 C 5.609375 -18.800781 5.441406 -19.074219 5.304688 -19.277344 C 4.691406 -20.09375 3.945312 -20.464844 3.058594 -20.464844 C 2.921875 -20.464844 2.789062 -20.398438 2.582031 -20.296875 C 2.378906 -20.195312 2.242188 -20.125 2.140625 -20.125 C 2.109375 -20.023438 2.074219 -19.71875 2.003906 -19.242188 L 2.003906 -18.15625 C 2.140625 -18.050781 2.175781 -17.882812 2.109375 -17.644531 C 2.003906 -17.371094 1.972656 -17.203125 2.003906 -17.132812 C 2.003906 -16.863281 2.003906 -16.558594 2.003906 -16.148438 C 1.972656 -15.742188 2.003906 -15.402344 2.140625 -15.164062 C 2.242188 -14.925781 2.242188 -14.6875 2.140625 -14.449219 C 2.074219 -14.347656 2.003906 -14.246094 2.003906 -14.144531 C 1.972656 -14.039062 1.972656 -13.9375 1.972656 -13.804688 C 1.972656 -13.667969 2.003906 -13.597656 2.003906 -13.53125 C 2.003906 -13.191406 2.039062 -12.988281 2.140625 -12.917969 C 2.210938 -12.816406 2.175781 -12.714844 2.109375 -12.578125 C 2.039062 -12.441406 2.003906 -12.339844 2.003906 -12.308594 L 2.003906 -10.980469 C 2.074219 -10.503906 2.109375 -10.234375 2.140625 -10.199219 C 2.210938 -9.996094 2.210938 -9.722656 2.074219 -9.417969 C 1.902344 -9.007812 1.902344 -8.636719 2.074219 -8.296875 C 2.175781 -7.886719 2.210938 -7.582031 2.140625 -7.34375 C 2.109375 -7.242188 2.074219 -6.765625 2.003906 -5.914062 L 2.003906 -4.214844 C 2.003906 -3.945312 1.972656 -3.773438 1.972656 -3.773438 C 1.902344 -3.5 1.871094 -3.296875 1.871094 -3.230469 C 1.871094 -3.128906 1.902344 -2.957031 1.972656 -2.6875 C 2.039062 -2.414062 2.109375 -2.242188 2.140625 -2.175781 C 1.9375 -1.902344 1.9375 -1.53125 2.109375 -1.121094 C 2.109375 -1.019531 2.140625 -0.882812 2.175781 -0.746094 C 2.175781 -0.578125 2.210938 -0.441406 2.277344 -0.304688 C 2.3125 -0.171875 2.378906 -0.0664062 2.515625 0 L 5.234375 0 L 5.882812 -0.679688 L 5.882812 -6.832031 C 5.882812 -6.902344 5.847656 -7.003906 5.8125 -7.140625 C 5.746094 -7.277344 5.746094 -7.34375 5.746094 -7.378906 L 5.847656 -7.480469 C 5.882812 -7.683594 5.882812 -8.058594 5.882812 -8.601562 C 5.847656 -9.113281 5.8125 -9.484375 5.78125 -9.722656 C 5.746094 -9.792969 5.746094 -9.925781 5.8125 -10.132812 C 5.882812 -10.371094 5.914062 -10.503906 5.984375 -10.574219 C 6.050781 -10.640625 6.222656 -10.742188 6.492188 -10.878906 C 6.527344 -10.84375 6.59375 -10.8125 6.699219 -10.777344 C 6.800781 -10.742188 6.867188 -10.710938 6.902344 -10.675781 C 7.039062 -10.402344 7.277344 -10.027344 7.648438 -9.554688 C 8.023438 -9.078125 8.296875 -8.738281 8.429688 -8.464844 C 8.464844 -8.328125 8.566406 -8.195312 8.703125 -8.058594 C 8.839844 -7.921875 8.90625 -7.820312 8.941406 -7.785156 C 9.078125 -7.582031 9.28125 -7.34375 9.585938 -7.039062 C 9.894531 -6.699219 10.164062 -6.425781 10.371094 -6.152344 C 10.574219 -5.882812 10.710938 -5.574219 10.84375 -5.269531 L 10.878906 -5.234375 C 11.152344 -4.964844 11.492188 -4.523438 11.898438 -3.910156 C 12 -3.707031 12.238281 -3.398438 12.613281 -2.957031 C 12.953125 -2.480469 13.226562 -2.109375 13.359375 -1.835938 C 13.429688 -1.664062 13.597656 -1.460938 13.835938 -1.222656 C 14.074219 -0.984375 14.246094 -0.816406 14.3125 -0.746094 C 14.484375 -0.40625 14.753906 -0.171875 15.09375 0 C 15.164062 0 15.332031 0 15.535156 0 C 15.742188 0 15.945312 0 16.082031 0 C 16.21875 0.0351562 16.386719 0.101562 16.558594 0.171875 Z M 16.558594 0.171875 "/></g></g></g><g fill="#fafafa" fill-opacity="1"><g transform="translate(153.480786, 191.784832)"><g><path d="M 12.058594 -36.839844 C 11.941406 -36.960938 11.878906 -37.019531 11.878906 -37.078125 C 11.039062 -38.519531 9.78125 -39.300781 8.101562 -39.359375 C 7.738281 -39.359375 7.320312 -39.359375 6.71875 -39.238281 C 6.121094 -39.121094 5.640625 -39.058594 5.398438 -39.058594 C 5.28125 -38.941406 4.980469 -38.761719 4.558594 -38.519531 C 4.078125 -38.28125 3.78125 -38.039062 3.601562 -37.800781 C 3.359375 -37.558594 3.238281 -37.199219 3.121094 -36.839844 C 3.121094 -36.71875 3.121094 -36.539062 3.179688 -36.300781 C 3.179688 -36.058594 3.238281 -35.820312 3.300781 -35.578125 C 3.300781 -35.339844 3.359375 -35.101562 3.359375 -34.921875 C 3.421875 -33.71875 3.898438 -32.878906 4.800781 -32.519531 C 5.039062 -32.398438 5.28125 -32.28125 5.519531 -32.21875 L 8.878906 -32.21875 C 9.480469 -32.160156 10.261719 -32.398438 11.101562 -32.941406 C 11.160156 -32.941406 11.21875 -33 11.339844 -33.121094 C 11.460938 -33.179688 11.578125 -33.238281 11.699219 -33.359375 C 11.820312 -33.71875 12 -34.019531 12.179688 -34.320312 C 12.421875 -34.679688 12.480469 -34.921875 12.300781 -35.160156 C 12.179688 -35.28125 12.121094 -35.820312 12.058594 -36.839844 Z M 3.359375 -28.199219 C 3.359375 -26.761719 3.359375 -25.980469 3.421875 -25.800781 C 3.421875 -25.5 3.421875 -25.261719 3.421875 -25.019531 C 3.421875 -24.78125 3.421875 -24.539062 3.421875 -24.238281 C 3.421875 -23.941406 3.480469 -23.640625 3.601562 -23.398438 C 3.601562 -23.28125 3.660156 -22.378906 3.660156 -20.761719 C 3.660156 -20.398438 3.601562 -20.101562 3.539062 -19.859375 C 3.238281 -19.140625 3.179688 -18.421875 3.421875 -17.578125 C 3.601562 -16.859375 3.601562 -16.261719 3.480469 -15.78125 C 3.238281 -15.238281 3.238281 -14.761719 3.480469 -14.398438 C 3.78125 -13.859375 3.839844 -13.261719 3.601562 -12.539062 C 3.238281 -11.339844 3.300781 -10.199219 3.660156 -9.179688 C 3.71875 -8.761719 3.71875 -8.519531 3.601562 -8.398438 C 3.480469 -8.28125 3.359375 -8.101562 3.359375 -7.980469 C 3.300781 -7.800781 3.300781 -7.621094 3.300781 -7.441406 C 3.300781 -7.261719 3.359375 -7.140625 3.359375 -7.078125 L 3.359375 -2.820312 C 3.359375 -1.980469 3.480469 -1.441406 3.71875 -1.140625 L 3.960938 -1.140625 C 4.199219 -0.960938 4.5 -0.78125 4.980469 -0.660156 C 5.398438 -0.539062 5.699219 -0.421875 5.878906 -0.300781 C 6.058594 -0.0585938 6.421875 0 7.019531 -0.0585938 C 7.621094 -0.0585938 7.980469 -0.0585938 8.160156 -0.0585938 L 8.820312 -0.0585938 L 9.601562 -0.238281 C 10.078125 -0.359375 10.441406 -0.421875 10.558594 -0.539062 C 10.679688 -0.601562 10.921875 -0.78125 11.21875 -1.019531 C 11.460938 -1.261719 11.699219 -1.621094 11.820312 -2.039062 C 11.820312 -2.398438 11.820312 -2.941406 11.820312 -3.71875 C 11.820312 -4.441406 11.878906 -5.101562 12.058594 -5.578125 C 12.121094 -6 12.121094 -6.898438 12.058594 -8.21875 C 12.058594 -9.359375 11.941406 -10.078125 11.820312 -10.378906 C 11.640625 -10.621094 11.699219 -10.921875 11.941406 -11.339844 C 12.058594 -11.941406 12.058594 -12.601562 11.878906 -13.320312 C 11.640625 -13.800781 11.640625 -14.21875 11.878906 -14.699219 C 12 -14.878906 12.058594 -15.238281 12.058594 -15.78125 C 12.058594 -15.960938 12 -16.140625 12 -16.378906 C 12 -16.558594 11.941406 -16.800781 11.941406 -17.039062 C 11.878906 -17.28125 11.878906 -17.519531 11.878906 -17.699219 C 11.761719 -17.941406 11.761719 -18.238281 11.878906 -18.71875 C 12 -19.199219 12.058594 -19.5 12.058594 -19.679688 C 12.058594 -19.800781 12.058594 -20.101562 12.121094 -20.699219 C 12.121094 -21.238281 12.121094 -21.660156 12.121094 -22.019531 C 12.058594 -22.378906 11.941406 -22.738281 11.820312 -23.101562 C 11.820312 -23.101562 11.820312 -23.460938 11.941406 -24.121094 C 12.058594 -24.839844 12.058594 -25.621094 11.941406 -26.398438 C 11.761719 -27 11.820312 -27.539062 12.058594 -27.960938 C 12 -28.140625 11.941406 -28.320312 11.820312 -28.5 C 11.699219 -28.679688 11.578125 -28.859375 11.398438 -28.980469 C 11.21875 -29.101562 11.101562 -29.21875 10.980469 -29.339844 C 10.859375 -29.398438 10.679688 -29.519531 10.441406 -29.640625 L 9.898438 -29.941406 C 8.339844 -29.699219 6.898438 -29.640625 5.519531 -29.640625 C 4.378906 -29.519531 3.660156 -29.039062 3.359375 -28.199219 Z M 3.359375 -28.199219 "/></g></g></g><g fill="#fafafa" fill-opacity="1"><g transform="translate(166.560765, 191.784832)"><g><path d="M 18 -29.820312 C 17.640625 -29.820312 17.339844 -29.820312 17.160156 -29.878906 L 14.519531 -30.058594 C 13.320312 -30.300781 12.480469 -30.238281 12 -29.820312 C 11.699219 -29.878906 11.339844 -29.820312 10.859375 -29.640625 C 10.378906 -29.398438 10.019531 -29.339844 9.839844 -29.339844 C 8.578125 -29.339844 7.558594 -28.859375 6.71875 -27.960938 C 6.601562 -27.839844 6.300781 -27.601562 5.878906 -27.238281 C 5.398438 -26.878906 5.101562 -26.640625 4.980469 -26.398438 C 3.78125 -24.78125 3 -23.519531 2.640625 -22.558594 C 1.980469 -20.941406 1.679688 -19.738281 1.679688 -19.019531 L 1.679688 -18.238281 C 1.679688 -17.878906 1.621094 -17.640625 1.621094 -17.460938 C 1.621094 -17.28125 1.558594 -17.039062 1.5 -16.800781 C 1.378906 -16.5 1.261719 -16.261719 1.140625 -16.019531 L 1.140625 -15.539062 C 1.078125 -15 1.140625 -14.21875 1.261719 -13.261719 C 1.378906 -12.238281 1.378906 -11.460938 1.378906 -10.921875 C 1.378906 -10.800781 1.378906 -10.738281 1.441406 -10.738281 C 1.5 -10.679688 1.558594 -10.621094 1.558594 -10.558594 C 1.621094 -10.199219 2.21875 -8.640625 3.359375 -5.941406 C 3.480469 -5.28125 3.839844 -4.738281 4.378906 -4.320312 C 4.5 -4.199219 4.679688 -3.898438 4.921875 -3.539062 C 5.101562 -3 5.640625 -2.460938 6.480469 -1.980469 C 7.738281 -1.261719 9.179688 -0.71875 10.800781 -0.300781 C 10.980469 -0.238281 11.21875 -0.179688 11.578125 -0.0585938 C 11.941406 0.0585938 12.238281 0.179688 12.539062 0.179688 C 12.78125 0.238281 13.078125 0.238281 13.378906 0.179688 C 13.558594 0.179688 13.921875 0.238281 14.398438 0.238281 C 14.878906 0.238281 15.238281 0.238281 15.480469 0.179688 C 16.441406 0.121094 17.101562 0 17.578125 -0.121094 C 18.480469 -0.238281 19.320312 -0.539062 20.101562 -1.019531 C 20.339844 -1.140625 20.761719 -1.441406 21.238281 -1.800781 C 21.71875 -2.160156 22.140625 -2.398438 22.5 -2.578125 C 22.980469 -2.941406 23.21875 -3.121094 23.28125 -3.179688 C 24 -4.199219 24.539062 -4.980469 24.78125 -5.460938 L 25.320312 -7.078125 L 25.859375 -8.398438 C 26.519531 -9.71875 26.820312 -10.800781 26.699219 -11.519531 L 26.699219 -11.761719 C 26.941406 -12 27 -12.359375 26.941406 -12.960938 C 26.878906 -13.078125 26.941406 -13.320312 27.058594 -13.621094 C 27.179688 -13.859375 27.238281 -14.039062 27.238281 -14.160156 C 27.300781 -14.578125 27.238281 -15.179688 27.121094 -15.960938 C 27 -16.679688 26.941406 -17.28125 26.941406 -17.640625 C 26.820312 -17.761719 26.699219 -17.878906 26.699219 -18 C 26.640625 -18.121094 26.640625 -18.300781 26.640625 -18.480469 C 26.640625 -18.660156 26.699219 -18.839844 26.699219 -18.960938 C 26.519531 -19.320312 26.460938 -19.738281 26.460938 -20.28125 C 26.460938 -20.640625 26.28125 -21.238281 25.980469 -21.960938 C 25.921875 -22.078125 25.800781 -22.261719 25.679688 -22.5 C 25.5 -22.738281 25.378906 -22.980469 25.378906 -23.160156 C 25.199219 -24 24.71875 -24.839844 23.878906 -25.679688 L 22.320312 -27.238281 C 21.601562 -28.019531 20.460938 -28.738281 18.78125 -29.339844 C 18.71875 -29.339844 18.601562 -29.398438 18.480469 -29.519531 C 18.300781 -29.640625 18.121094 -29.699219 18 -29.820312 Z M 14.761719 -6.898438 C 14.519531 -6.898438 14.21875 -7.019531 13.800781 -7.140625 C 13.320312 -7.261719 13.019531 -7.378906 12.839844 -7.5 C 11.941406 -7.800781 11.21875 -8.640625 10.621094 -10.078125 C 10.378906 -10.558594 10.140625 -11.398438 9.898438 -12.71875 C 9.660156 -13.980469 9.660156 -15.238281 9.898438 -16.558594 C 9.960938 -17.398438 10.078125 -18.121094 10.199219 -18.660156 C 10.679688 -20.101562 10.980469 -20.820312 11.039062 -20.941406 C 11.878906 -22.140625 13.5 -22.679688 16.019531 -22.441406 C 16.800781 -21.660156 17.28125 -20.878906 17.460938 -20.039062 C 17.578125 -19.621094 17.820312 -19.199219 18.058594 -18.839844 C 18.359375 -18.121094 18.539062 -17.160156 18.539062 -16.019531 C 18.539062 -15.898438 18.539062 -15.839844 18.539062 -15.78125 C 18.539062 -15.660156 18.601562 -15.601562 18.660156 -15.480469 C 18.660156 -15.359375 18.71875 -15.300781 18.71875 -15.300781 C 18.839844 -14.878906 18.839844 -14.640625 18.78125 -14.578125 C 18.539062 -14.21875 18.421875 -13.558594 18.539062 -12.660156 C 18.539062 -12.179688 18.421875 -11.578125 18.179688 -10.980469 C 18.058594 -10.738281 17.941406 -10.378906 17.761719 -10.019531 C 17.519531 -9.601562 17.398438 -9.300781 17.339844 -9.058594 C 17.21875 -8.820312 17.101562 -8.578125 16.980469 -8.398438 C 16.800781 -8.21875 16.621094 -8.101562 16.5 -7.980469 C 16.378906 -7.859375 16.199219 -7.679688 15.960938 -7.558594 L 15.421875 -7.199219 C 15.300781 -7.078125 15.179688 -7.019531 15.058594 -7.019531 C 14.941406 -6.960938 14.820312 -6.898438 14.761719 -6.898438 Z M 14.761719 -6.898438 "/></g></g></g></svg>