<svg xmlns="http://www.w3.org/2000/svg" xmlns:xlink="http://www.w3.org/1999/xlink" width="431" zoomAndPan="magnify" viewBox="0 0 323.25 142.499996" height="190" preserveAspectRatio="xMidYMid meet" version="1.0"><defs><g/><clipPath id="4017cceb3f"><path d="M 17 18 L 81 18 L 81 133 L 17 133 Z M 17 18 " clip-rule="nonzero"/></clipPath><clipPath id="8271c1d7f6"><path d="M 41.996094 5.300781 L 95.539062 24.25 L 54.144531 141.207031 L 0.601562 122.253906 Z M 41.996094 5.300781 " clip-rule="nonzero"/></clipPath><clipPath id="37aa126366"><path d="M 41.996094 5.300781 L 95.539062 24.25 L 54.144531 141.207031 L 0.601562 122.253906 Z M 41.996094 5.300781 " clip-rule="nonzero"/></clipPath><clipPath id="4f5b6f127c"><path d="M 41.996094 5.300781 L 95.539062 24.25 L 54.144531 141.207031 L 0.601562 122.253906 Z M 41.996094 5.300781 " clip-rule="nonzero"/></clipPath></defs><g clip-path="url(#4017cceb3f)"><g clip-path="url(#8271c1d7f6)"><g clip-path="url(#37aa126366)"><g clip-path="url(#4f5b6f127c)"><path fill="#f94616" d="M 65.585938 89.839844 C 68.414062 84.929688 69.628906 79.78125 69.65625 74.324219 C 69.664062 73.234375 69.683594 72.144531 69.527344 71.0625 C 69.488281 70.78125 69.394531 70.425781 69.777344 70.320312 C 70.164062 70.210938 70.339844 70.511719 70.464844 70.820312 C 71.519531 73.425781 72.273438 76.082031 72.359375 78.921875 C 72.484375 83.023438 72.046875 87.054688 71 91.003906 C 68.25 101.371094 62.800781 110.121094 54.890625 117.34375 C 50.328125 121.503906 45.589844 125.441406 40.03125 128.269531 C 38.492188 129.050781 36.972656 129.871094 35.433594 130.660156 C 33.746094 131.53125 31.890625 131.839844 30.058594 132.238281 C 29.855469 132.28125 29.628906 132.210938 29.410156 132.21875 C 28.824219 132.230469 28.789062 132.015625 29.070312 131.554688 C 29.652344 130.613281 30.304688 129.71875 30.804688 128.71875 C 31.953125 126.421875 32.714844 124.03125 32.9375 121.449219 C 33.324219 116.988281 32.246094 112.84375 30.367188 108.851562 C 28.65625 105.214844 26.628906 101.742188 24.753906 98.195312 C 20.96875 91.023438 19.503906 83.378906 19.953125 75.339844 C 20.117188 72.378906 20.617188 69.476562 21.34375 66.609375 C 21.457031 66.164062 21.648438 65.742188 21.800781 65.3125 C 21.894531 65.046875 22.035156 64.792969 22.339844 64.785156 C 22.683594 64.78125 22.742188 65.097656 22.800781 65.355469 C 23.1875 67.03125 23.511719 68.71875 23.714844 70.433594 C 24.023438 72.984375 24.382812 75.535156 25.460938 77.914062 C 26.132812 79.398438 26.988281 80.722656 28.519531 81.5 C 30.679688 82.59375 32.511719 81.585938 32.652344 79.167969 C 32.746094 77.542969 32.269531 76.007812 31.746094 74.488281 C 31.070312 72.527344 30.1875 70.652344 29.230469 68.816406 C 26.835938 64.21875 25.871094 59.390625 26.707031 54.25 C 26.875 53.222656 27.023438 52.191406 27.375 51.207031 C 27.476562 50.917969 27.53125 50.535156 27.949219 50.5625 C 28.363281 50.59375 28.398438 50.976562 28.445312 51.273438 C 28.722656 52.988281 29.441406 54.527344 30.40625 55.941406 C 31.449219 57.464844 33.042969 58.332031 34.542969 59.332031 C 42.554688 64.660156 46.9375 72.21875 45.332031 81.847656 C 44.894531 84.460938 44.128906 86.984375 43.382812 89.515625 C 42.824219 91.394531 42.300781 93.285156 41.855469 95.191406 C 41.628906 96.152344 41.660156 97.171875 42.667969 97.769531 C 43.59375 98.316406 44.441406 97.898438 45.25 97.40625 C 46.730469 96.511719 47.707031 95.175781 48.566406 93.726562 C 50.386719 90.652344 50.679688 87.230469 50.753906 83.785156 C 50.863281 78.320312 50.417969 72.867188 50.097656 67.417969 C 49.800781 62.242188 49.820312 57.074219 50.683594 51.949219 C 52.480469 41.269531 57.25 32.324219 66.191406 25.871094 C 68.902344 23.914062 71.871094 22.394531 74.902344 20.992188 C 76.292969 20.347656 77.699219 19.730469 79.101562 19.109375 C 79.320312 19.015625 79.558594 18.941406 79.792969 18.902344 C 80.171875 18.84375 80.316406 19.003906 80.121094 19.359375 C 80.03125 19.527344 79.925781 19.710938 79.773438 19.8125 C 77.5 21.386719 75.832031 23.5 74.394531 25.816406 C 73.15625 27.808594 71.773438 29.703125 70.628906 31.757812 C 69.25 34.238281 68.074219 36.816406 66.96875 39.429688 C 65.417969 43.09375 64.246094 46.875 63.820312 50.824219 C 63.230469 56.25 63.257812 61.6875 64.160156 67.105469 C 64.988281 72.074219 65.871094 77.039062 65.964844 82.097656 C 66.007812 84.398438 65.910156 86.6875 65.640625 88.972656 C 65.613281 89.203125 65.609375 89.4375 65.585938 89.839844 Z M 42.855469 80.878906 C 43.273438 79.679688 43.4375 78.429688 43.34375 77.179688 C 43.136719 74.386719 42.257812 71.761719 40.882812 69.332031 C 39.820312 67.457031 38.535156 65.722656 36.6875 64.492188 C 36.523438 64.382812 36.320312 64.191406 36.1875 64.328125 C 35.96875 64.550781 36.261719 64.707031 36.394531 64.855469 C 38.371094 66.996094 39.988281 69.378906 41.023438 72.105469 C 42.109375 74.960938 42.574219 77.914062 42.226562 80.972656 C 42.195312 81.226562 42.003906 81.667969 42.3125 81.757812 C 42.695312 81.871094 42.609375 81.367188 42.757812 81.148438 C 42.808594 81.070312 42.824219 80.96875 42.855469 80.878906 Z M 61.429688 69 C 61.25 69.160156 61.3125 69.3125 61.332031 69.449219 C 61.824219 72.601562 61.820312 75.785156 61.945312 78.957031 C 62.042969 81.417969 62.550781 83.828125 62.691406 86.277344 C 62.699219 86.429688 62.722656 86.59375 62.886719 86.625 C 63.085938 86.664062 63.09375 86.460938 63.140625 86.339844 C 63.183594 86.226562 63.214844 86.105469 63.21875 85.984375 C 63.253906 84.859375 63.335938 83.730469 63.308594 82.605469 C 63.195312 78.15625 62.441406 73.78125 61.695312 69.40625 C 61.667969 69.234375 61.644531 69.074219 61.429688 69 Z M 61.347656 92.738281 C 61.304688 92.859375 61.246094 93.019531 61.195312 93.179688 C 61.160156 93.289062 61.089844 93.429688 61.25 93.488281 C 61.320312 93.511719 61.441406 93.476562 61.511719 93.425781 C 62.238281 92.933594 63.042969 90.546875 62.769531 89.75 C 62.714844 89.597656 62.628906 89.480469 62.46875 89.488281 C 62.28125 89.496094 62.277344 89.675781 62.257812 89.808594 C 62.109375 90.820312 61.800781 91.78125 61.347656 92.738281 Z M 33.578125 61.605469 C 33.53125 61.660156 33.484375 61.71875 33.4375 61.777344 C 33.890625 62.292969 34.34375 62.808594 34.789062 63.328125 C 34.882812 63.4375 34.976562 63.472656 35.105469 63.40625 C 35.230469 63.34375 35.191406 63.242188 35.136719 63.171875 C 34.671875 62.59375 34.265625 61.949219 33.578125 61.605469 Z M 48 64.792969 C 47.21875 62.109375 47.070312 59.367188 47.25 56.605469 C 47.488281 53.050781 48.191406 49.570312 49.066406 46.125 C 49.949219 42.652344 51.242188 39.328125 53.160156 36.304688 C 55.625 32.421875 58.632812 28.996094 62.386719 26.273438 C 62.660156 26.074219 63.039062 25.855469 62.777344 25.46875 C 62.53125 25.109375 62.207031 25.398438 61.9375 25.539062 C 60.238281 26.4375 58.574219 27.410156 57.085938 28.617188 C 52.65625 32.214844 49.589844 36.816406 47.4375 42.046875 C 46.453125 44.429688 45.855469 46.921875 45.40625 49.460938 C 44.507812 54.574219 45.210938 59.53125 46.8125 64.402344 C 46.992188 64.957031 47.1875 65.640625 48.046875 65.757812 C 48.09375 65.402344 48.089844 65.097656 48 64.792969 Z M 29.515625 120.316406 C 29.414062 116.796875 28.605469 113.519531 26.496094 110.605469 C 24.496094 107.835938 22.125 105.398438 19.785156 102.929688 C 19.402344 102.527344 18.992188 102.148438 18.582031 101.769531 C 18.417969 101.621094 18.199219 101.488281 17.996094 101.660156 C 17.765625 101.855469 17.828125 102.09375 18.007812 102.304688 C 18.085938 102.398438 18.167969 102.488281 18.25 102.574219 C 19.304688 103.648438 20.0625 104.910156 20.742188 106.238281 C 21.839844 108.378906 22.921875 110.527344 24.304688 112.515625 C 26.789062 116.089844 28.277344 120.015625 28.28125 124.417969 C 28.28125 124.683594 28.289062 124.949219 28.308594 125.214844 C 28.324219 125.433594 28.445312 125.574219 28.671875 125.605469 C 28.925781 125.644531 29.015625 125.480469 29.0625 125.28125 C 29.378906 123.640625 29.5625 121.992188 29.515625 120.316406 Z M 58.894531 117.933594 C 58.910156 117.503906 59.390625 116.972656 58.859375 116.671875 C 58.351562 116.382812 58.054688 116.964844 57.75 117.269531 C 53.710938 121.3125 49.574219 125.234375 44.84375 128.488281 C 42.851562 129.859375 40.726562 130.953125 38.484375 131.847656 C 38.171875 131.96875 37.480469 131.8125 37.625 132.34375 C 37.746094 132.789062 38.335938 132.484375 38.65625 132.363281 C 42.117188 131.070312 45.585938 129.785156 48.820312 127.980469 C 49.671875 127.507812 50.492188 126.992188 51.363281 126.550781 C 54.859375 124.78125 57.367188 122.109375 58.699219 118.503906 C 58.789062 118.253906 58.886719 118.097656 58.894531 117.933594 Z M 67.691406 60.269531 C 67.777344 62.710938 67.882812 65.164062 69.136719 67.382812 C 69.242188 67.566406 69.285156 67.835938 69.5625 67.816406 C 69.835938 67.796875 69.859375 67.550781 69.910156 67.335938 C 70.480469 64.882812 70.617188 62.402344 70.097656 59.9375 C 69.6875 58 69.617188 56.074219 69.695312 54.109375 C 69.78125 51.9375 70.15625 49.847656 70.976562 47.835938 C 71.0625 47.625 71.109375 47.371094 70.832031 47.289062 C 70.539062 47.203125 70.378906 47.441406 70.308594 47.679688 C 69.925781 48.96875 68.988281 50.035156 68.914062 50.847656 C 68 54.304688 67.582031 57.257812 67.691406 60.269531 Z M 27.921875 46.941406 C 27.9375 47.421875 27.761719 48.109375 28.347656 48.277344 C 28.953125 48.449219 29.300781 47.847656 29.640625 47.410156 C 29.65625 47.390625 29.667969 47.371094 29.679688 47.347656 C 30.332031 46.269531 30.859375 45.132812 31.363281 43.980469 C 31.980469 42.558594 32.46875 41.085938 33.167969 39.695312 C 33.878906 38.289062 34.816406 37.023438 35.640625 35.6875 C 35.804688 35.417969 35.9375 35.140625 35.644531 34.910156 C 35.367188 34.6875 35.152344 34.917969 34.960938 35.105469 C 34.382812 35.65625 33.808594 36.210938 33.230469 36.761719 C 31.277344 38.632812 29.492188 40.625 28.566406 43.425781 C 28.191406 44.449219 27.878906 45.664062 27.921875 46.941406 Z M 27.921875 46.941406 " fill-opacity="1" fill-rule="nonzero"/></g></g></g></g><g fill="#f94616" fill-opacity="1"><g transform="translate(86.618963, 107.30569)"><g><path d="M 2.914062 0 C 3.320312 -0.0664062 3.726562 -0.0664062 4.199219 -0.0351562 C 4.609375 -0.0351562 5.015625 -0.203125 5.488281 -0.574219 C 5.523438 -0.574219 5.589844 -0.644531 5.691406 -0.746094 C 5.792969 -0.847656 5.894531 -0.949219 5.996094 -1.015625 C 5.929688 -1.085938 5.929688 -1.21875 5.929688 -1.355469 C 5.929688 -1.492188 5.894531 -1.625 5.828125 -1.726562 C 5.65625 -1.929688 5.65625 -2.101562 5.792969 -2.304688 C 5.859375 -2.40625 5.929688 -2.710938 5.929688 -3.21875 C 5.929688 -4.132812 5.859375 -4.710938 5.792969 -4.945312 C 5.792969 -5.082031 5.792969 -5.523438 5.757812 -6.199219 C 5.691406 -6.878906 5.757812 -7.316406 5.929688 -7.488281 C 5.929688 -7.488281 5.960938 -7.554688 5.960938 -7.621094 L 5.929688 -7.722656 C 5.792969 -8.199219 5.792969 -8.671875 5.929688 -9.214844 C 5.960938 -9.519531 5.960938 -9.722656 5.894531 -9.789062 C 5.828125 -9.859375 5.792969 -10.097656 5.792969 -10.433594 C 5.726562 -10.839844 5.792969 -11.113281 5.929688 -11.246094 C 5.894531 -11.449219 5.894531 -11.890625 5.929688 -12.570312 C 5.929688 -13.246094 5.894531 -13.6875 5.792969 -13.855469 C 5.757812 -13.925781 5.757812 -13.992188 5.792969 -14.09375 C 5.996094 -14.433594 5.996094 -14.839844 5.792969 -15.3125 C 5.726562 -15.347656 5.757812 -15.515625 5.828125 -15.789062 C 5.996094 -16.328125 5.960938 -16.804688 5.757812 -17.210938 C 5.828125 -17.210938 5.894531 -17.277344 5.894531 -17.347656 L 5.894531 -19.582031 C 5.757812 -19.988281 5.386719 -20.359375 4.8125 -20.632812 C 4.574219 -20.5625 4.199219 -20.53125 3.691406 -20.496094 C 3.183594 -20.460938 2.8125 -20.429688 2.574219 -20.429688 L 2.269531 -20.125 C 2.132812 -19.785156 2.066406 -19.546875 2.066406 -19.445312 C 2.03125 -19.210938 2.03125 -19.007812 2.066406 -18.800781 C 2.132812 -18.261719 2.167969 -17.988281 2.203125 -17.957031 C 2.304688 -17.683594 2.304688 -17.414062 2.203125 -17.144531 C 2.101562 -17.007812 2.066406 -16.632812 2.066406 -16.09375 C 2 -15.550781 2 -15.042969 2.066406 -14.535156 C 2.066406 -14.398438 2.03125 -14.230469 2.03125 -14.027344 C 2.03125 -13.789062 2.03125 -13.585938 2.066406 -13.414062 C 2.066406 -13.246094 2.132812 -13.078125 2.203125 -12.941406 C 2.335938 -12.773438 2.304688 -12.601562 2.167969 -12.46875 C 2.132812 -12.433594 2.101562 -12.230469 2.066406 -11.890625 C 2 -11.6875 2.03125 -11.382812 2.101562 -10.976562 C 2.167969 -10.570312 2.203125 -10.332031 2.203125 -10.265625 C 2.234375 -9.453125 2.234375 -8.640625 2.203125 -7.859375 C 2.203125 -6.84375 2.132812 -6.0625 2.066406 -5.554688 C 2 -5.117188 2 -4.503906 2.101562 -3.691406 C 2.167969 -2.878906 2.203125 -2.269531 2.203125 -1.898438 C 2.203125 -1.761719 2.167969 -1.59375 2.132812 -1.355469 C 2.101562 -1.117188 2.101562 -0.949219 2.101562 -0.878906 C 2.132812 -0.8125 2.167969 -0.710938 2.234375 -0.574219 C 2.304688 -0.40625 2.335938 -0.304688 2.40625 -0.238281 C 2.472656 -0.203125 2.539062 -0.167969 2.675781 -0.101562 C 2.777344 -0.0351562 2.847656 0 2.914062 0 Z M 2.914062 0 "/></g></g></g><g fill="#f94616" fill-opacity="1"><g transform="translate(98.374755, 107.30569)"><g><path d="M 10.433594 0.371094 C 10.671875 0.441406 10.910156 0.371094 11.113281 0.238281 C 11.179688 0.167969 11.417969 0.136719 11.824219 0.167969 C 12.128906 0.269531 12.5 0.269531 12.90625 0.203125 C 13.042969 0.136719 13.246094 0.101562 13.449219 0.101562 C 13.652344 0.101562 13.925781 0.0664062 14.332031 0.0351562 C 14.703125 0 14.972656 -0.0351562 15.175781 -0.0664062 C 15.347656 -0.101562 15.515625 -0.167969 15.652344 -0.304688 C 15.789062 -0.441406 15.957031 -0.574219 16.09375 -0.746094 C 16.058594 -0.878906 16.09375 -1.050781 16.160156 -1.253906 C 16.226562 -1.457031 16.261719 -1.660156 16.261719 -1.796875 C 16.261719 -1.929688 16.226562 -2.132812 16.160156 -2.40625 C 16.09375 -2.675781 16.09375 -2.847656 16.09375 -2.980469 C 16.058594 -3.421875 16.09375 -3.964844 16.226562 -4.640625 C 16.226562 -4.710938 16.261719 -5.117188 16.261719 -5.828125 C 16.261719 -6.371094 16.226562 -6.808594 16.226562 -7.082031 C 16.226562 -7.722656 16.195312 -8.097656 16.160156 -8.234375 C 16.023438 -8.335938 16.023438 -8.539062 16.125 -8.84375 C 16.195312 -9.113281 16.261719 -9.316406 16.261719 -9.417969 L 16.261719 -9.484375 C 16.261719 -9.519531 16.226562 -9.554688 16.226562 -9.554688 C 16.09375 -9.65625 16.058594 -9.890625 16.09375 -10.300781 C 16.09375 -10.671875 16.09375 -10.910156 16.09375 -11.042969 C 15.6875 -11.316406 15.484375 -11.449219 15.449219 -11.519531 C 15.347656 -11.519531 15.210938 -11.484375 15.074219 -11.484375 C 14.90625 -11.484375 14.769531 -11.484375 14.636719 -11.519531 C 14.5 -11.519531 14.398438 -11.585938 14.296875 -11.652344 C 14.128906 -11.722656 13.992188 -11.722656 13.855469 -11.652344 C 13.722656 -11.585938 13.621094 -11.519531 13.484375 -11.519531 C 13.347656 -11.484375 13.210938 -11.484375 13.078125 -11.484375 C 12.90625 -11.484375 12.804688 -11.519531 12.738281 -11.519531 C 12.601562 -11.519531 12.398438 -11.484375 12.128906 -11.449219 C 11.859375 -11.382812 11.652344 -11.382812 11.519531 -11.382812 L 10.605469 -11.382812 C 10.503906 -11.214844 10.332031 -10.976562 10.128906 -10.671875 C 10.128906 -10.128906 10.128906 -9.824219 10.164062 -9.757812 C 10.300781 -9.078125 10.46875 -8.640625 10.738281 -8.46875 C 10.773438 -8.4375 10.839844 -8.402344 10.910156 -8.335938 C 10.976562 -8.265625 11.042969 -8.234375 11.078125 -8.234375 C 11.078125 -8.234375 11.144531 -8.199219 11.214844 -8.199219 C 11.28125 -8.199219 11.347656 -8.199219 11.417969 -8.265625 C 11.484375 -8.335938 11.550781 -8.367188 11.621094 -8.402344 C 11.6875 -8.402344 11.789062 -8.402344 11.859375 -8.402344 C 11.925781 -8.402344 11.992188 -8.367188 12.0625 -8.367188 C 12.128906 -8.335938 12.195312 -8.300781 12.296875 -8.265625 C 12.367188 -8.234375 12.433594 -8.199219 12.5 -8.199219 C 12.839844 -7.113281 13.007812 -6.402344 12.976562 -5.996094 C 12.976562 -5.929688 12.941406 -5.828125 12.90625 -5.691406 C 12.839844 -5.554688 12.839844 -5.453125 12.839844 -5.386719 C 12.839844 -5.285156 12.839844 -5.148438 12.90625 -4.980469 C 12.941406 -4.8125 12.976562 -4.710938 12.976562 -4.675781 L 12.976562 -4.472656 C 12.839844 -4.4375 12.804688 -4.300781 12.804688 -4.03125 C 12.804688 -3.761719 12.804688 -3.589844 12.804688 -3.523438 C 12.5 -3.117188 12.332031 -2.878906 12.332031 -2.878906 L 11.925781 -2.878906 C 11.621094 -2.710938 11.078125 -2.710938 10.332031 -2.914062 L 10.164062 -2.980469 C 10.0625 -3.015625 9.996094 -3.050781 9.960938 -3.050781 C 9.6875 -3.050781 9.179688 -3.152344 8.367188 -3.355469 C 7.792969 -3.488281 7.453125 -3.625 7.351562 -3.726562 C 6.84375 -4.03125 6.503906 -4.4375 6.371094 -4.914062 C 6.164062 -5.386719 5.792969 -5.894531 5.21875 -6.371094 C 5.21875 -6.472656 5.21875 -6.640625 5.21875 -6.84375 C 5.21875 -7.046875 5.25 -7.214844 5.25 -7.351562 C 5.25 -7.488281 5.21875 -7.65625 5.21875 -7.792969 C 5.148438 -7.925781 5.117188 -8.265625 5.082031 -8.773438 C 5.082031 -8.84375 5.046875 -9.011719 5.015625 -9.25 C 4.945312 -9.484375 4.945312 -9.6875 4.945312 -9.824219 L 4.945312 -12.164062 C 5.285156 -12.738281 5.554688 -13.382812 5.691406 -14.128906 C 5.757812 -14.535156 5.996094 -14.941406 6.335938 -15.347656 C 7.011719 -16.160156 7.859375 -16.804688 8.910156 -17.210938 C 9.382812 -17.378906 9.757812 -17.480469 9.960938 -17.480469 C 10.0625 -17.480469 10.230469 -17.480469 10.433594 -17.550781 C 10.636719 -17.582031 10.738281 -17.617188 10.808594 -17.617188 L 11.789062 -17.617188 C 11.925781 -17.683594 12.027344 -17.71875 12.09375 -17.785156 C 12.296875 -17.652344 12.601562 -17.480469 13.007812 -17.3125 C 13.722656 -17.347656 14.261719 -17.414062 14.601562 -17.480469 C 15.007812 -17.617188 15.277344 -17.820312 15.382812 -18.125 C 15.382812 -18.125 15.382812 -18.191406 15.414062 -18.261719 L 15.484375 -18.394531 C 15.484375 -18.394531 15.484375 -18.429688 15.484375 -18.496094 C 15.382812 -18.632812 15.347656 -18.871094 15.347656 -19.210938 C 15.347656 -19.546875 15.347656 -19.785156 15.347656 -19.921875 C 15.144531 -20.054688 14.90625 -20.191406 14.636719 -20.292969 C 14.363281 -20.359375 14.128906 -20.429688 13.925781 -20.460938 C 13.722656 -20.460938 13.484375 -20.496094 13.179688 -20.53125 C 12.875 -20.53125 12.636719 -20.5625 12.5 -20.597656 C 12.164062 -20.632812 11.6875 -20.632812 11.078125 -20.5625 C 10.46875 -20.496094 10.0625 -20.460938 9.859375 -20.460938 L 9.554688 -20.460938 C 9.417969 -20.460938 9.316406 -20.429688 9.28125 -20.429688 C 9.113281 -20.429688 8.945312 -20.359375 8.808594 -20.292969 C 8.640625 -20.191406 8.402344 -20.15625 8.0625 -20.15625 L 7.316406 -20.15625 C 7.214844 -20.089844 7.082031 -20.023438 6.945312 -19.953125 C 6.808594 -19.886719 6.675781 -19.820312 6.539062 -19.75 C 6.402344 -19.683594 6.300781 -19.683594 6.164062 -19.683594 C 5.894531 -19.648438 5.554688 -19.515625 5.21875 -19.3125 C 5.015625 -19.175781 4.742188 -18.9375 4.4375 -18.667969 C 4.132812 -18.394531 3.964844 -18.226562 3.894531 -18.160156 C 3.828125 -18.089844 3.691406 -17.988281 3.558594 -17.886719 C 3.386719 -17.785156 3.285156 -17.683594 3.253906 -17.617188 C 2.847656 -17.007812 2.574219 -16.566406 2.472656 -16.226562 C 2.234375 -15.71875 2.066406 -15.414062 1.964844 -15.3125 C 1.863281 -15.210938 1.796875 -15.042969 1.796875 -14.804688 C 1.796875 -14.566406 1.761719 -14.398438 1.726562 -14.296875 C 1.695312 -14.230469 1.695312 -14.195312 1.695312 -14.128906 C 1.695312 -14.058594 1.660156 -13.992188 1.625 -13.957031 C 1.558594 -13.890625 1.523438 -13.722656 1.523438 -13.515625 C 1.523438 -13.382812 1.457031 -13.007812 1.390625 -12.46875 C 1.320312 -11.890625 1.289062 -11.449219 1.355469 -11.179688 C 1.355469 -11.011719 1.289062 -10.839844 1.21875 -10.636719 C 1.21875 -10.605469 1.1875 -10.535156 1.152344 -10.46875 C 1.085938 -10.367188 1.050781 -10.300781 1.050781 -10.265625 C 1.050781 -10.230469 1.050781 -10.199219 1.085938 -10.128906 C 1.085938 -10.0625 1.152344 -9.996094 1.21875 -9.960938 L 1.21875 -9.65625 C 1.21875 -9.585938 1.1875 -9.453125 1.1875 -9.316406 C 1.1875 -9.148438 1.1875 -9.011719 1.21875 -8.875 C 1.21875 -8.742188 1.289062 -8.640625 1.355469 -8.539062 C 1.492188 -8.300781 1.457031 -8.097656 1.253906 -7.894531 C 1.1875 -7.824219 1.152344 -7.722656 1.21875 -7.621094 C 1.421875 -7.011719 1.523438 -6.605469 1.59375 -6.4375 C 1.660156 -6.234375 1.761719 -5.894531 1.964844 -5.421875 C 2.132812 -4.945312 2.269531 -4.574219 2.371094 -4.300781 C 2.371094 -4.234375 2.40625 -4.132812 2.472656 -3.964844 C 2.539062 -3.792969 2.574219 -3.691406 2.640625 -3.625 C 2.980469 -3.152344 3.355469 -2.710938 3.828125 -2.304688 C 3.929688 -2.203125 4.335938 -1.828125 5.082031 -1.21875 C 5.183594 -1.085938 5.351562 -0.984375 5.554688 -0.949219 C 5.960938 -0.847656 6.371094 -0.675781 6.742188 -0.40625 C 7.285156 -0.269531 7.722656 -0.238281 8.0625 -0.238281 C 8.539062 -0.238281 9.011719 -0.101562 9.453125 0.101562 Z M 10.433594 0.371094 "/></g></g></g><g fill="#f94616" fill-opacity="1"><g transform="translate(119.785558, 107.30569)"><g><path d="M 16.5 0.167969 L 17.144531 -0.304688 C 17.144531 -0.644531 17.144531 -1.085938 17.144531 -1.59375 C 17.144531 -2.066406 17.175781 -2.472656 17.3125 -2.8125 C 17.347656 -2.878906 17.347656 -3.015625 17.277344 -3.152344 C 17.210938 -3.285156 17.175781 -3.421875 17.175781 -3.488281 C 17.175781 -3.558594 17.210938 -3.660156 17.246094 -3.828125 C 17.246094 -3.964844 17.277344 -4.097656 17.3125 -4.199219 C 17.347656 -4.234375 17.347656 -4.269531 17.3125 -4.335938 C 17.109375 -4.640625 17.074219 -4.945312 17.246094 -5.21875 C 17.347656 -5.285156 17.347656 -5.421875 17.277344 -5.65625 C 17.210938 -5.859375 17.175781 -5.996094 17.175781 -6.0625 L 17.175781 -6.164062 C 17.175781 -6.164062 17.175781 -6.199219 17.210938 -6.199219 C 17.277344 -6.234375 17.3125 -6.402344 17.3125 -6.707031 L 17.3125 -9.65625 C 17.3125 -9.65625 17.277344 -9.824219 17.246094 -10.164062 C 17.175781 -10.433594 17.175781 -10.707031 17.246094 -10.976562 C 17.347656 -11.214844 17.347656 -11.484375 17.246094 -11.757812 C 17.175781 -12.0625 17.144531 -12.230469 17.210938 -12.296875 C 17.277344 -12.367188 17.3125 -12.535156 17.3125 -12.839844 C 17.3125 -12.839844 17.347656 -13.179688 17.347656 -13.789062 L 17.3125 -14.703125 C 17.3125 -14.941406 17.277344 -15.074219 17.277344 -15.109375 C 17.074219 -15.382812 17.074219 -15.71875 17.210938 -16.125 C 17.246094 -16.226562 17.277344 -16.398438 17.277344 -16.601562 L 17.3125 -16.871094 C 17.347656 -17.246094 17.277344 -18.160156 17.144531 -19.582031 C 17.074219 -19.648438 17.007812 -19.785156 16.90625 -19.921875 C 16.804688 -20.054688 16.734375 -20.125 16.734375 -20.191406 C 16.464844 -20.191406 16.125 -20.226562 15.652344 -20.257812 C 15.175781 -20.292969 14.871094 -20.328125 14.667969 -20.394531 C 14.398438 -20.257812 14.128906 -20.125 13.824219 -19.953125 C 13.722656 -19.75 13.621094 -19.445312 13.484375 -19.039062 L 13.585938 -18.53125 C 13.621094 -18.328125 13.621094 -18.226562 13.585938 -18.160156 C 13.484375 -17.988281 13.449219 -17.550781 13.449219 -16.871094 L 13.449219 -12.773438 C 13.449219 -12.296875 13.484375 -12.027344 13.621094 -11.960938 C 13.621094 -10.941406 13.449219 -10.230469 13.109375 -9.824219 C 12.636719 -9.722656 12.265625 -9.890625 11.992188 -10.300781 C 11.347656 -11.144531 10.976562 -11.621094 10.910156 -11.722656 C 10.636719 -12.027344 10.46875 -12.230469 10.46875 -12.296875 C 10.265625 -12.703125 9.722656 -13.347656 8.910156 -14.296875 C 8.4375 -14.738281 8.199219 -15.074219 8.132812 -15.3125 C 7.996094 -15.789062 7.65625 -16.226562 7.183594 -16.703125 C 6.945312 -16.90625 6.707031 -17.175781 6.503906 -17.449219 C 6.300781 -17.71875 6.0625 -18.058594 5.828125 -18.394531 C 5.589844 -18.734375 5.421875 -19.007812 5.285156 -19.210938 C 4.675781 -20.023438 3.929688 -20.394531 3.050781 -20.394531 C 2.914062 -20.394531 2.777344 -20.328125 2.574219 -20.226562 C 2.371094 -20.125 2.234375 -20.054688 2.132812 -20.054688 C 2.101562 -19.953125 2.066406 -19.648438 2 -19.175781 L 2 -18.089844 C 2.132812 -17.988281 2.167969 -17.820312 2.101562 -17.582031 C 2 -17.3125 1.964844 -17.144531 2 -17.074219 C 2 -16.804688 2 -16.5 2 -16.09375 C 1.964844 -15.6875 2 -15.347656 2.132812 -15.109375 C 2.234375 -14.871094 2.234375 -14.636719 2.132812 -14.398438 C 2.066406 -14.296875 2 -14.195312 2 -14.09375 C 1.964844 -13.992188 1.964844 -13.890625 1.964844 -13.753906 C 1.964844 -13.621094 2 -13.550781 2 -13.484375 C 2 -13.144531 2.03125 -12.941406 2.132812 -12.875 C 2.203125 -12.773438 2.167969 -12.671875 2.101562 -12.535156 C 2.03125 -12.398438 2 -12.296875 2 -12.265625 L 2 -10.941406 C 2.066406 -10.46875 2.101562 -10.199219 2.132812 -10.164062 C 2.203125 -9.960938 2.203125 -9.6875 2.066406 -9.382812 C 1.898438 -8.976562 1.898438 -8.605469 2.066406 -8.265625 C 2.167969 -7.859375 2.203125 -7.554688 2.132812 -7.316406 C 2.101562 -7.214844 2.066406 -6.742188 2 -5.894531 L 2 -4.199219 C 2 -3.929688 1.964844 -3.761719 1.964844 -3.761719 C 1.898438 -3.488281 1.863281 -3.285156 1.863281 -3.21875 C 1.863281 -3.117188 1.898438 -2.949219 1.964844 -2.675781 C 2.03125 -2.40625 2.101562 -2.234375 2.132812 -2.167969 C 1.929688 -1.898438 1.929688 -1.523438 2.101562 -1.117188 C 2.101562 -1.015625 2.132812 -0.878906 2.167969 -0.746094 C 2.167969 -0.574219 2.203125 -0.441406 2.269531 -0.304688 C 2.304688 -0.167969 2.371094 -0.0664062 2.507812 0 L 5.21875 0 L 5.859375 -0.675781 L 5.859375 -6.808594 C 5.859375 -6.878906 5.828125 -6.980469 5.792969 -7.113281 C 5.726562 -7.25 5.726562 -7.316406 5.726562 -7.351562 L 5.828125 -7.453125 C 5.859375 -7.65625 5.859375 -8.027344 5.859375 -8.570312 C 5.828125 -9.078125 5.792969 -9.453125 5.757812 -9.6875 C 5.726562 -9.757812 5.726562 -9.890625 5.792969 -10.097656 C 5.859375 -10.332031 5.894531 -10.46875 5.960938 -10.535156 C 6.03125 -10.605469 6.199219 -10.707031 6.472656 -10.839844 C 6.503906 -10.808594 6.574219 -10.773438 6.675781 -10.738281 C 6.777344 -10.707031 6.84375 -10.671875 6.878906 -10.636719 C 7.011719 -10.367188 7.25 -9.996094 7.621094 -9.519531 C 7.996094 -9.046875 8.265625 -8.707031 8.402344 -8.4375 C 8.4375 -8.300781 8.539062 -8.164062 8.671875 -8.027344 C 8.808594 -7.894531 8.875 -7.792969 8.910156 -7.757812 C 9.046875 -7.554688 9.25 -7.316406 9.554688 -7.011719 C 9.859375 -6.675781 10.128906 -6.402344 10.332031 -6.132812 C 10.535156 -5.859375 10.671875 -5.554688 10.808594 -5.25 L 10.839844 -5.21875 C 11.113281 -4.945312 11.449219 -4.503906 11.859375 -3.894531 C 11.960938 -3.691406 12.195312 -3.386719 12.570312 -2.949219 C 12.90625 -2.472656 13.179688 -2.101562 13.3125 -1.828125 C 13.382812 -1.660156 13.550781 -1.457031 13.789062 -1.21875 C 14.027344 -0.984375 14.195312 -0.8125 14.261719 -0.746094 C 14.433594 -0.40625 14.703125 -0.167969 15.042969 0 C 15.109375 0 15.277344 0 15.484375 0 C 15.6875 0 15.890625 0 16.023438 0 C 16.160156 0.0351562 16.328125 0.101562 16.5 0.167969 Z M 16.5 0.167969 "/></g></g></g><g fill="#f94616" fill-opacity="1"><g transform="translate(142.382069, 107.30569)"><g><path d="M 2.914062 0 C 3.320312 -0.0664062 3.726562 -0.0664062 4.199219 -0.0351562 C 4.609375 -0.0351562 5.015625 -0.203125 5.488281 -0.574219 C 5.523438 -0.574219 5.589844 -0.644531 5.691406 -0.746094 C 5.792969 -0.847656 5.894531 -0.949219 5.996094 -1.015625 C 5.929688 -1.085938 5.929688 -1.21875 5.929688 -1.355469 C 5.929688 -1.492188 5.894531 -1.625 5.828125 -1.726562 C 5.65625 -1.929688 5.65625 -2.101562 5.792969 -2.304688 C 5.859375 -2.40625 5.929688 -2.710938 5.929688 -3.21875 C 5.929688 -4.132812 5.859375 -4.710938 5.792969 -4.945312 C 5.792969 -5.082031 5.792969 -5.523438 5.757812 -6.199219 C 5.691406 -6.878906 5.757812 -7.316406 5.929688 -7.488281 C 5.929688 -7.488281 5.960938 -7.554688 5.960938 -7.621094 L 5.929688 -7.722656 C 5.792969 -8.199219 5.792969 -8.671875 5.929688 -9.214844 C 5.960938 -9.519531 5.960938 -9.722656 5.894531 -9.789062 C 5.828125 -9.859375 5.792969 -10.097656 5.792969 -10.433594 C 5.726562 -10.839844 5.792969 -11.113281 5.929688 -11.246094 C 5.894531 -11.449219 5.894531 -11.890625 5.929688 -12.570312 C 5.929688 -13.246094 5.894531 -13.6875 5.792969 -13.855469 C 5.757812 -13.925781 5.757812 -13.992188 5.792969 -14.09375 C 5.996094 -14.433594 5.996094 -14.839844 5.792969 -15.3125 C 5.726562 -15.347656 5.757812 -15.515625 5.828125 -15.789062 C 5.996094 -16.328125 5.960938 -16.804688 5.757812 -17.210938 C 5.828125 -17.210938 5.894531 -17.277344 5.894531 -17.347656 L 5.894531 -19.582031 C 5.757812 -19.988281 5.386719 -20.359375 4.8125 -20.632812 C 4.574219 -20.5625 4.199219 -20.53125 3.691406 -20.496094 C 3.183594 -20.460938 2.8125 -20.429688 2.574219 -20.429688 L 2.269531 -20.125 C 2.132812 -19.785156 2.066406 -19.546875 2.066406 -19.445312 C 2.03125 -19.210938 2.03125 -19.007812 2.066406 -18.800781 C 2.132812 -18.261719 2.167969 -17.988281 2.203125 -17.957031 C 2.304688 -17.683594 2.304688 -17.414062 2.203125 -17.144531 C 2.101562 -17.007812 2.066406 -16.632812 2.066406 -16.09375 C 2 -15.550781 2 -15.042969 2.066406 -14.535156 C 2.066406 -14.398438 2.03125 -14.230469 2.03125 -14.027344 C 2.03125 -13.789062 2.03125 -13.585938 2.066406 -13.414062 C 2.066406 -13.246094 2.132812 -13.078125 2.203125 -12.941406 C 2.335938 -12.773438 2.304688 -12.601562 2.167969 -12.46875 C 2.132812 -12.433594 2.101562 -12.230469 2.066406 -11.890625 C 2 -11.6875 2.03125 -11.382812 2.101562 -10.976562 C 2.167969 -10.570312 2.203125 -10.332031 2.203125 -10.265625 C 2.234375 -9.453125 2.234375 -8.640625 2.203125 -7.859375 C 2.203125 -6.84375 2.132812 -6.0625 2.066406 -5.554688 C 2 -5.117188 2 -4.503906 2.101562 -3.691406 C 2.167969 -2.878906 2.203125 -2.269531 2.203125 -1.898438 C 2.203125 -1.761719 2.167969 -1.59375 2.132812 -1.355469 C 2.101562 -1.117188 2.101562 -0.949219 2.101562 -0.878906 C 2.132812 -0.8125 2.167969 -0.710938 2.234375 -0.574219 C 2.304688 -0.40625 2.335938 -0.304688 2.40625 -0.238281 C 2.472656 -0.203125 2.539062 -0.167969 2.675781 -0.101562 C 2.777344 -0.0351562 2.847656 0 2.914062 0 Z M 2.914062 0 "/></g></g></g><g fill="#f94616" fill-opacity="1"><g transform="translate(154.137859, 107.30569)"><g><path d="M 6.574219 0.203125 L 7.757812 0.203125 C 8.097656 0.203125 8.539062 0.136719 9.078125 0 C 9.554688 -0.304688 9.6875 -0.746094 9.519531 -1.289062 C 9.484375 -1.421875 9.453125 -1.558594 9.453125 -1.761719 C 9.417969 -1.964844 9.382812 -2.132812 9.382812 -2.269531 C 9.351562 -2.335938 9.382812 -2.472656 9.453125 -2.640625 C 9.519531 -2.777344 9.554688 -2.878906 9.554688 -2.949219 C 9.554688 -3.117188 9.484375 -3.355469 9.382812 -3.625 C 9.382812 -3.660156 9.382812 -3.691406 9.417969 -3.691406 C 9.554688 -3.894531 9.554688 -4.167969 9.417969 -4.574219 C 9.28125 -4.675781 9.28125 -4.777344 9.417969 -4.914062 C 9.484375 -4.980469 9.554688 -5.21875 9.554688 -5.625 C 9.519531 -6.0625 9.519531 -6.640625 9.554688 -7.386719 C 9.554688 -8.132812 9.519531 -8.707031 9.417969 -9.179688 C 9.351562 -9.453125 9.382812 -9.859375 9.519531 -10.402344 C 9.585938 -10.808594 9.585938 -11.417969 9.554688 -12.265625 C 9.519531 -12.398438 9.453125 -12.601562 9.382812 -12.875 C 9.316406 -13.144531 9.25 -13.347656 9.25 -13.414062 C 9.25 -13.414062 9.28125 -13.414062 9.28125 -13.449219 C 9.554688 -14.09375 9.585938 -14.769531 9.453125 -15.449219 L 9.417969 -15.71875 C 9.519531 -15.789062 9.554688 -15.957031 9.554688 -16.296875 C 9.554688 -16.601562 9.554688 -16.804688 9.585938 -16.90625 C 9.65625 -16.9375 9.789062 -17.007812 9.925781 -17.109375 C 10.0625 -17.210938 10.164062 -17.277344 10.230469 -17.347656 L 12.0625 -17.347656 C 12.265625 -17.347656 12.433594 -17.3125 12.5 -17.3125 C 12.90625 -17.175781 13.210938 -17.175781 13.414062 -17.246094 C 13.585938 -17.3125 13.789062 -17.515625 14.027344 -17.855469 L 14.027344 -19.851562 C 13.957031 -19.851562 13.753906 -20.023438 13.347656 -20.328125 L 8.132812 -20.328125 C 7.691406 -20.328125 7.417969 -20.257812 7.351562 -20.191406 C 7.316406 -20.15625 7.285156 -20.15625 7.285156 -20.15625 C 7.25 -20.15625 7.214844 -20.15625 7.148438 -20.191406 C 7.082031 -20.191406 7.046875 -20.226562 7.011719 -20.226562 C 6.472656 -20.359375 5.859375 -20.394531 5.25 -20.257812 C 4.914062 -20.15625 4.609375 -20.15625 4.335938 -20.257812 C 4.132812 -20.292969 4.03125 -20.328125 3.996094 -20.328125 L 1.761719 -20.328125 C 1.152344 -19.851562 0.878906 -19.210938 0.914062 -18.464844 L 1.015625 -18.363281 L 1.050781 -18.292969 C 1.253906 -17.957031 1.558594 -17.683594 1.898438 -17.480469 C 2.234375 -17.277344 2.574219 -17.246094 2.914062 -17.378906 C 3.253906 -17.515625 3.691406 -17.550781 4.167969 -17.449219 C 4.234375 -17.414062 4.371094 -17.378906 4.574219 -17.378906 C 4.742188 -17.378906 4.878906 -17.347656 5.015625 -17.3125 C 5.117188 -17.277344 5.21875 -17.210938 5.320312 -17.109375 C 5.421875 -16.972656 5.523438 -16.871094 5.589844 -16.734375 C 5.65625 -16.601562 5.691406 -16.5 5.691406 -16.363281 L 5.691406 -15.550781 C 5.691406 -15.347656 5.691406 -15.210938 5.757812 -15.074219 C 5.894531 -14.769531 5.894531 -14.535156 5.792969 -14.363281 C 5.625 -13.957031 5.625 -13.621094 5.828125 -13.347656 C 5.828125 -13.28125 5.828125 -13.246094 5.792969 -13.179688 C 5.757812 -13.109375 5.757812 -13.042969 5.757812 -13.007812 C 5.625 -12.570312 5.65625 -12.230469 5.828125 -11.992188 C 5.625 -11.652344 5.625 -11.347656 5.757812 -11.113281 C 5.894531 -10.773438 5.894531 -10.433594 5.792969 -10.128906 C 5.726562 -9.960938 5.691406 -9.757812 5.691406 -9.484375 C 5.691406 -9.28125 5.65625 -9.046875 5.65625 -8.742188 C 5.65625 -8.402344 5.65625 -8.132812 5.65625 -7.859375 C 5.65625 -7.589844 5.726562 -7.316406 5.792969 -7.113281 C 5.792969 -7.046875 5.792969 -6.640625 5.726562 -5.960938 C 5.691406 -5.757812 5.691406 -4.914062 5.691406 -3.355469 C 5.691406 -3.285156 5.691406 -3.253906 5.757812 -3.183594 C 5.792969 -3.117188 5.828125 -3.082031 5.828125 -3.082031 C 5.792969 -3.050781 5.757812 -2.878906 5.691406 -2.609375 L 5.589844 -2.335938 C 5.554688 -2.234375 5.523438 -2.167969 5.523438 -2.132812 C 5.625 -2.066406 5.65625 -1.929688 5.65625 -1.695312 C 5.65625 -1.421875 5.65625 -1.289062 5.691406 -1.21875 C 5.691406 -1.1875 5.691406 -1.085938 5.726562 -0.949219 C 5.726562 -0.777344 5.757812 -0.675781 5.792969 -0.644531 C 5.792969 -0.609375 5.828125 -0.542969 5.859375 -0.40625 C 5.894531 -0.269531 5.929688 -0.203125 5.996094 -0.136719 C 6.0625 -0.0664062 6.132812 -0.0351562 6.234375 0.0351562 C 6.300781 0.101562 6.4375 0.167969 6.574219 0.203125 Z M 6.574219 0.203125 "/></g></g></g><g fill="#f94616" fill-opacity="1"><g transform="translate(172.872362, 107.30569)"><g><path d="M 2.914062 0 C 3.320312 -0.0664062 3.726562 -0.0664062 4.199219 -0.0351562 C 4.609375 -0.0351562 5.015625 -0.203125 5.488281 -0.574219 C 5.523438 -0.574219 5.589844 -0.644531 5.691406 -0.746094 C 5.792969 -0.847656 5.894531 -0.949219 5.996094 -1.015625 C 5.929688 -1.085938 5.929688 -1.21875 5.929688 -1.355469 C 5.929688 -1.492188 5.894531 -1.625 5.828125 -1.726562 C 5.65625 -1.929688 5.65625 -2.101562 5.792969 -2.304688 C 5.859375 -2.40625 5.929688 -2.710938 5.929688 -3.21875 C 5.929688 -4.132812 5.859375 -4.710938 5.792969 -4.945312 C 5.792969 -5.082031 5.792969 -5.523438 5.757812 -6.199219 C 5.691406 -6.878906 5.757812 -7.316406 5.929688 -7.488281 C 5.929688 -7.488281 5.960938 -7.554688 5.960938 -7.621094 L 5.929688 -7.722656 C 5.792969 -8.199219 5.792969 -8.671875 5.929688 -9.214844 C 5.960938 -9.519531 5.960938 -9.722656 5.894531 -9.789062 C 5.828125 -9.859375 5.792969 -10.097656 5.792969 -10.433594 C 5.726562 -10.839844 5.792969 -11.113281 5.929688 -11.246094 C 5.894531 -11.449219 5.894531 -11.890625 5.929688 -12.570312 C 5.929688 -13.246094 5.894531 -13.6875 5.792969 -13.855469 C 5.757812 -13.925781 5.757812 -13.992188 5.792969 -14.09375 C 5.996094 -14.433594 5.996094 -14.839844 5.792969 -15.3125 C 5.726562 -15.347656 5.757812 -15.515625 5.828125 -15.789062 C 5.996094 -16.328125 5.960938 -16.804688 5.757812 -17.210938 C 5.828125 -17.210938 5.894531 -17.277344 5.894531 -17.347656 L 5.894531 -19.582031 C 5.757812 -19.988281 5.386719 -20.359375 4.8125 -20.632812 C 4.574219 -20.5625 4.199219 -20.53125 3.691406 -20.496094 C 3.183594 -20.460938 2.8125 -20.429688 2.574219 -20.429688 L 2.269531 -20.125 C 2.132812 -19.785156 2.066406 -19.546875 2.066406 -19.445312 C 2.03125 -19.210938 2.03125 -19.007812 2.066406 -18.800781 C 2.132812 -18.261719 2.167969 -17.988281 2.203125 -17.957031 C 2.304688 -17.683594 2.304688 -17.414062 2.203125 -17.144531 C 2.101562 -17.007812 2.066406 -16.632812 2.066406 -16.09375 C 2 -15.550781 2 -15.042969 2.066406 -14.535156 C 2.066406 -14.398438 2.03125 -14.230469 2.03125 -14.027344 C 2.03125 -13.789062 2.03125 -13.585938 2.066406 -13.414062 C 2.066406 -13.246094 2.132812 -13.078125 2.203125 -12.941406 C 2.335938 -12.773438 2.304688 -12.601562 2.167969 -12.46875 C 2.132812 -12.433594 2.101562 -12.230469 2.066406 -11.890625 C 2 -11.6875 2.03125 -11.382812 2.101562 -10.976562 C 2.167969 -10.570312 2.203125 -10.332031 2.203125 -10.265625 C 2.234375 -9.453125 2.234375 -8.640625 2.203125 -7.859375 C 2.203125 -6.84375 2.132812 -6.0625 2.066406 -5.554688 C 2 -5.117188 2 -4.503906 2.101562 -3.691406 C 2.167969 -2.878906 2.203125 -2.269531 2.203125 -1.898438 C 2.203125 -1.761719 2.167969 -1.59375 2.132812 -1.355469 C 2.101562 -1.117188 2.101562 -0.949219 2.101562 -0.878906 C 2.132812 -0.8125 2.167969 -0.710938 2.234375 -0.574219 C 2.304688 -0.40625 2.335938 -0.304688 2.40625 -0.238281 C 2.472656 -0.203125 2.539062 -0.167969 2.675781 -0.101562 C 2.777344 -0.0351562 2.847656 0 2.914062 0 Z M 2.914062 0 "/></g></g></g><g fill="#f94616" fill-opacity="1"><g transform="translate(184.628152, 107.30569)"><g><path d="M 8.808594 0.304688 C 8.84375 0.304688 8.910156 0.304688 9.046875 0.238281 C 9.148438 0.203125 9.25 0.167969 9.351562 0.167969 L 9.789062 0.203125 C 10.0625 0.203125 10.230469 0.203125 10.230469 0.167969 C 10.332031 0.167969 10.46875 0.101562 10.671875 0 C 10.875 -0.0664062 10.976562 -0.136719 11.011719 -0.136719 C 11.859375 -0.472656 12.398438 -0.777344 12.671875 -0.984375 C 12.839844 -1.117188 13.109375 -1.289062 13.449219 -1.523438 C 13.789062 -1.761719 14.027344 -1.964844 14.195312 -2.101562 C 14.464844 -2.335938 14.601562 -2.640625 14.667969 -2.980469 L 14.769531 -3.320312 C 14.839844 -3.488281 14.871094 -3.625 14.941406 -3.726562 C 15.414062 -4.640625 15.617188 -5.453125 15.617188 -6.199219 C 15.617188 -6.335938 15.617188 -6.4375 15.652344 -6.472656 C 15.855469 -7.046875 15.957031 -7.488281 15.890625 -7.757812 C 15.820312 -7.925781 15.855469 -8.164062 15.921875 -8.46875 C 15.992188 -8.773438 16.058594 -9.011719 16.058594 -9.179688 C 15.957031 -9.789062 15.921875 -10.433594 15.921875 -11.144531 C 15.855469 -11.789062 15.855469 -12.433594 15.921875 -13.078125 C 15.921875 -13.550781 15.855469 -13.925781 15.753906 -14.128906 C 15.652344 -14.261719 15.617188 -14.5 15.617188 -14.804688 L 15.617188 -15.585938 C 15.449219 -15.855469 15.347656 -16.023438 15.3125 -16.09375 C 14.972656 -16.769531 14.703125 -17.277344 14.566406 -17.652344 C 14.363281 -18.160156 14.058594 -18.496094 13.585938 -18.699219 C 13.382812 -18.769531 13.210938 -18.9375 13.078125 -19.175781 C 12.875 -19.515625 12.5 -19.75 12.027344 -19.886719 C 11.757812 -19.953125 11.417969 -20.054688 10.941406 -20.226562 C 10.46875 -20.359375 10.097656 -20.460938 9.824219 -20.53125 C 9.316406 -20.597656 8.773438 -20.597656 8.234375 -20.53125 C 7.554688 -20.359375 7.082031 -20.292969 6.878906 -20.359375 L 6.472656 -20.359375 C 5.117188 -19.886719 4.199219 -19.445312 3.726562 -19.039062 C 3.082031 -18.464844 2.539062 -17.617188 2.066406 -16.464844 C 2.066406 -15.957031 1.929688 -15.449219 1.660156 -14.941406 C 1.355469 -14.535156 1.320312 -14.230469 1.59375 -13.992188 C 1.558594 -13.925781 1.523438 -13.824219 1.523438 -13.722656 C 1.523438 -13.621094 1.492188 -13.550781 1.457031 -13.515625 C 1.117188 -13.007812 1.085938 -12.601562 1.320312 -12.296875 L 1.320312 -12.164062 C 1.21875 -12.0625 1.1875 -11.925781 1.1875 -11.757812 C 1.1875 -11.550781 1.152344 -11.449219 1.152344 -11.382812 C 1.152344 -11.28125 1.085938 -11.144531 1.015625 -10.941406 C 1.015625 -10.910156 1.050781 -10.875 1.050781 -10.875 C 1.320312 -10.097656 1.390625 -9.484375 1.289062 -9.046875 L 1.1875 -7.925781 L 1.1875 -7.316406 C 1.117188 -7.011719 1.253906 -6.503906 1.59375 -5.828125 C 1.59375 -5.691406 1.625 -5.453125 1.660156 -5.183594 C 1.660156 -4.878906 1.695312 -4.675781 1.761719 -4.539062 C 1.828125 -4.199219 1.929688 -3.929688 2.132812 -3.726562 C 2.335938 -3.488281 2.574219 -3.117188 2.8125 -2.574219 C 2.847656 -2.472656 2.914062 -2.371094 3.050781 -2.234375 C 3.152344 -2.101562 3.21875 -2.03125 3.285156 -1.964844 C 3.421875 -1.761719 3.625 -1.558594 3.828125 -1.390625 C 4.03125 -1.21875 4.234375 -1.085938 4.402344 -0.984375 C 4.539062 -0.878906 4.777344 -0.746094 5.117188 -0.609375 L 5.792969 -0.269531 C 5.792969 -0.238281 5.960938 -0.203125 6.234375 -0.136719 C 6.402344 -0.0664062 6.675781 -0.0351562 7.011719 0 C 7.351562 0.0664062 7.621094 0.101562 7.824219 0.167969 C 8.097656 0.304688 8.4375 0.371094 8.808594 0.304688 Z M 7.996094 -2.949219 C 7.351562 -3.117188 6.84375 -3.386719 6.472656 -3.792969 C 5.960938 -4.371094 5.691406 -4.84375 5.625 -5.25 L 5.589844 -5.320312 C 5.453125 -5.421875 5.386719 -5.554688 5.320312 -5.726562 C 5.25 -5.859375 5.183594 -6.0625 5.148438 -6.265625 C 5.117188 -6.472656 5.082031 -6.640625 5.046875 -6.777344 C 4.980469 -6.910156 4.945312 -7.148438 4.945312 -7.488281 C 4.914062 -7.792969 4.878906 -8.027344 4.878906 -8.199219 C 4.84375 -8.335938 4.84375 -8.4375 4.84375 -8.539062 C 4.84375 -8.640625 4.84375 -8.742188 4.84375 -8.875 C 4.84375 -8.976562 4.8125 -9.078125 4.777344 -9.179688 C 4.710938 -9.179688 4.710938 -9.25 4.742188 -9.453125 C 4.777344 -9.65625 4.8125 -9.757812 4.8125 -9.824219 C 4.84375 -10.332031 4.84375 -10.671875 4.8125 -10.808594 C 4.742188 -11.144531 4.742188 -11.316406 4.777344 -11.347656 C 4.878906 -11.621094 4.914062 -11.925781 4.878906 -12.265625 L 4.878906 -13.144531 C 5.082031 -13.347656 5.183594 -13.621094 5.183594 -13.992188 C 5.148438 -14.433594 5.285156 -14.90625 5.625 -15.382812 C 5.691406 -15.449219 5.726562 -15.515625 5.792969 -15.617188 C 5.929688 -16.261719 6.472656 -16.835938 7.417969 -17.378906 C 7.554688 -17.449219 7.792969 -17.550781 8.132812 -17.617188 L 8.640625 -17.683594 C 8.945312 -17.753906 9.316406 -17.652344 9.789062 -17.378906 C 9.859375 -17.3125 9.925781 -17.277344 10.0625 -17.210938 C 10.164062 -17.144531 10.230469 -17.109375 10.265625 -17.109375 C 10.300781 -17.074219 10.332031 -17.039062 10.402344 -17.007812 C 10.46875 -16.972656 10.503906 -16.9375 10.535156 -16.90625 C 10.570312 -16.871094 10.605469 -16.835938 10.671875 -16.804688 C 10.707031 -16.769531 10.738281 -16.734375 10.808594 -16.667969 C 10.839844 -16.601562 10.875 -16.5 10.941406 -16.429688 C 10.976562 -16.363281 11.042969 -16.261719 11.144531 -16.160156 C 11.214844 -16.023438 11.28125 -15.890625 11.347656 -15.789062 C 11.417969 -15.6875 11.449219 -15.585938 11.519531 -15.515625 C 11.550781 -15.449219 11.585938 -15.347656 11.621094 -15.277344 C 11.652344 -15.175781 11.6875 -15.109375 11.722656 -15.074219 C 11.722656 -15.007812 11.757812 -14.941406 11.789062 -14.839844 C 11.824219 -14.703125 11.859375 -14.636719 11.859375 -14.566406 L 11.925781 -14.230469 C 11.960938 -14.058594 11.992188 -13.925781 12.027344 -13.855469 C 12.09375 -13.585938 12.128906 -13.246094 12.195312 -12.839844 C 12.265625 -12.398438 12.296875 -12.09375 12.367188 -11.925781 C 12.367188 -11.859375 12.367188 -11.757812 12.398438 -11.621094 C 12.433594 -11.484375 12.46875 -11.417969 12.46875 -11.347656 C 12.46875 -11.28125 12.46875 -11.179688 12.46875 -11.078125 C 12.367188 -10.875 12.332031 -10.503906 12.332031 -9.960938 C 12.332031 -9.382812 12.332031 -9.011719 12.332031 -8.84375 C 12.332031 -8.742188 12.332031 -8.640625 12.332031 -8.503906 C 12.332031 -8.367188 12.332031 -8.234375 12.332031 -8.132812 C 12.332031 -8.027344 12.296875 -7.925781 12.230469 -7.824219 C 12.164062 -7.722656 12.128906 -7.554688 12.128906 -7.351562 C 12.128906 -7.113281 12.09375 -6.945312 12.0625 -6.878906 C 11.992188 -6.742188 11.925781 -6.539062 11.925781 -6.265625 C 11.925781 -5.996094 11.890625 -5.828125 11.890625 -5.757812 C 11.789062 -5.386719 11.550781 -4.878906 11.179688 -4.234375 C 11.078125 -4.097656 10.941406 -3.929688 10.738281 -3.761719 C 10.535156 -3.589844 10.402344 -3.488281 10.367188 -3.421875 C 10.300781 -3.386719 10.300781 -3.355469 10.300781 -3.355469 C 10.300781 -3.320312 10.265625 -3.320312 10.230469 -3.320312 C 10.097656 -3.21875 9.925781 -3.152344 9.65625 -3.082031 C 9.382812 -3.015625 9.179688 -2.980469 9.113281 -2.949219 C 8.773438 -2.8125 8.402344 -2.8125 7.996094 -2.949219 Z M 7.996094 -2.949219 "/></g></g></g><g fill="#f94616" fill-opacity="1"><g transform="translate(205.56468, 107.30569)"><g><path d="M 16.5 0.167969 L 17.144531 -0.304688 C 17.144531 -0.644531 17.144531 -1.085938 17.144531 -1.59375 C 17.144531 -2.066406 17.175781 -2.472656 17.3125 -2.8125 C 17.347656 -2.878906 17.347656 -3.015625 17.277344 -3.152344 C 17.210938 -3.285156 17.175781 -3.421875 17.175781 -3.488281 C 17.175781 -3.558594 17.210938 -3.660156 17.246094 -3.828125 C 17.246094 -3.964844 17.277344 -4.097656 17.3125 -4.199219 C 17.347656 -4.234375 17.347656 -4.269531 17.3125 -4.335938 C 17.109375 -4.640625 17.074219 -4.945312 17.246094 -5.21875 C 17.347656 -5.285156 17.347656 -5.421875 17.277344 -5.65625 C 17.210938 -5.859375 17.175781 -5.996094 17.175781 -6.0625 L 17.175781 -6.164062 C 17.175781 -6.164062 17.175781 -6.199219 17.210938 -6.199219 C 17.277344 -6.234375 17.3125 -6.402344 17.3125 -6.707031 L 17.3125 -9.65625 C 17.3125 -9.65625 17.277344 -9.824219 17.246094 -10.164062 C 17.175781 -10.433594 17.175781 -10.707031 17.246094 -10.976562 C 17.347656 -11.214844 17.347656 -11.484375 17.246094 -11.757812 C 17.175781 -12.0625 17.144531 -12.230469 17.210938 -12.296875 C 17.277344 -12.367188 17.3125 -12.535156 17.3125 -12.839844 C 17.3125 -12.839844 17.347656 -13.179688 17.347656 -13.789062 L 17.3125 -14.703125 C 17.3125 -14.941406 17.277344 -15.074219 17.277344 -15.109375 C 17.074219 -15.382812 17.074219 -15.71875 17.210938 -16.125 C 17.246094 -16.226562 17.277344 -16.398438 17.277344 -16.601562 L 17.3125 -16.871094 C 17.347656 -17.246094 17.277344 -18.160156 17.144531 -19.582031 C 17.074219 -19.648438 17.007812 -19.785156 16.90625 -19.921875 C 16.804688 -20.054688 16.734375 -20.125 16.734375 -20.191406 C 16.464844 -20.191406 16.125 -20.226562 15.652344 -20.257812 C 15.175781 -20.292969 14.871094 -20.328125 14.667969 -20.394531 C 14.398438 -20.257812 14.128906 -20.125 13.824219 -19.953125 C 13.722656 -19.75 13.621094 -19.445312 13.484375 -19.039062 L 13.585938 -18.53125 C 13.621094 -18.328125 13.621094 -18.226562 13.585938 -18.160156 C 13.484375 -17.988281 13.449219 -17.550781 13.449219 -16.871094 L 13.449219 -12.773438 C 13.449219 -12.296875 13.484375 -12.027344 13.621094 -11.960938 C 13.621094 -10.941406 13.449219 -10.230469 13.109375 -9.824219 C 12.636719 -9.722656 12.265625 -9.890625 11.992188 -10.300781 C 11.347656 -11.144531 10.976562 -11.621094 10.910156 -11.722656 C 10.636719 -12.027344 10.46875 -12.230469 10.46875 -12.296875 C 10.265625 -12.703125 9.722656 -13.347656 8.910156 -14.296875 C 8.4375 -14.738281 8.199219 -15.074219 8.132812 -15.3125 C 7.996094 -15.789062 7.65625 -16.226562 7.183594 -16.703125 C 6.945312 -16.90625 6.707031 -17.175781 6.503906 -17.449219 C 6.300781 -17.71875 6.0625 -18.058594 5.828125 -18.394531 C 5.589844 -18.734375 5.421875 -19.007812 5.285156 -19.210938 C 4.675781 -20.023438 3.929688 -20.394531 3.050781 -20.394531 C 2.914062 -20.394531 2.777344 -20.328125 2.574219 -20.226562 C 2.371094 -20.125 2.234375 -20.054688 2.132812 -20.054688 C 2.101562 -19.953125 2.066406 -19.648438 2 -19.175781 L 2 -18.089844 C 2.132812 -17.988281 2.167969 -17.820312 2.101562 -17.582031 C 2 -17.3125 1.964844 -17.144531 2 -17.074219 C 2 -16.804688 2 -16.5 2 -16.09375 C 1.964844 -15.6875 2 -15.347656 2.132812 -15.109375 C 2.234375 -14.871094 2.234375 -14.636719 2.132812 -14.398438 C 2.066406 -14.296875 2 -14.195312 2 -14.09375 C 1.964844 -13.992188 1.964844 -13.890625 1.964844 -13.753906 C 1.964844 -13.621094 2 -13.550781 2 -13.484375 C 2 -13.144531 2.03125 -12.941406 2.132812 -12.875 C 2.203125 -12.773438 2.167969 -12.671875 2.101562 -12.535156 C 2.03125 -12.398438 2 -12.296875 2 -12.265625 L 2 -10.941406 C 2.066406 -10.46875 2.101562 -10.199219 2.132812 -10.164062 C 2.203125 -9.960938 2.203125 -9.6875 2.066406 -9.382812 C 1.898438 -8.976562 1.898438 -8.605469 2.066406 -8.265625 C 2.167969 -7.859375 2.203125 -7.554688 2.132812 -7.316406 C 2.101562 -7.214844 2.066406 -6.742188 2 -5.894531 L 2 -4.199219 C 2 -3.929688 1.964844 -3.761719 1.964844 -3.761719 C 1.898438 -3.488281 1.863281 -3.285156 1.863281 -3.21875 C 1.863281 -3.117188 1.898438 -2.949219 1.964844 -2.675781 C 2.03125 -2.40625 2.101562 -2.234375 2.132812 -2.167969 C 1.929688 -1.898438 1.929688 -1.523438 2.101562 -1.117188 C 2.101562 -1.015625 2.132812 -0.878906 2.167969 -0.746094 C 2.167969 -0.574219 2.203125 -0.441406 2.269531 -0.304688 C 2.304688 -0.167969 2.371094 -0.0664062 2.507812 0 L 5.21875 0 L 5.859375 -0.675781 L 5.859375 -6.808594 C 5.859375 -6.878906 5.828125 -6.980469 5.792969 -7.113281 C 5.726562 -7.25 5.726562 -7.316406 5.726562 -7.351562 L 5.828125 -7.453125 C 5.859375 -7.65625 5.859375 -8.027344 5.859375 -8.570312 C 5.828125 -9.078125 5.792969 -9.453125 5.757812 -9.6875 C 5.726562 -9.757812 5.726562 -9.890625 5.792969 -10.097656 C 5.859375 -10.332031 5.894531 -10.46875 5.960938 -10.535156 C 6.03125 -10.605469 6.199219 -10.707031 6.472656 -10.839844 C 6.503906 -10.808594 6.574219 -10.773438 6.675781 -10.738281 C 6.777344 -10.707031 6.84375 -10.671875 6.878906 -10.636719 C 7.011719 -10.367188 7.25 -9.996094 7.621094 -9.519531 C 7.996094 -9.046875 8.265625 -8.707031 8.402344 -8.4375 C 8.4375 -8.300781 8.539062 -8.164062 8.671875 -8.027344 C 8.808594 -7.894531 8.875 -7.792969 8.910156 -7.757812 C 9.046875 -7.554688 9.25 -7.316406 9.554688 -7.011719 C 9.859375 -6.675781 10.128906 -6.402344 10.332031 -6.132812 C 10.535156 -5.859375 10.671875 -5.554688 10.808594 -5.25 L 10.839844 -5.21875 C 11.113281 -4.945312 11.449219 -4.503906 11.859375 -3.894531 C 11.960938 -3.691406 12.195312 -3.386719 12.570312 -2.949219 C 12.90625 -2.472656 13.179688 -2.101562 13.3125 -1.828125 C 13.382812 -1.660156 13.550781 -1.457031 13.789062 -1.21875 C 14.027344 -0.984375 14.195312 -0.8125 14.261719 -0.746094 C 14.433594 -0.40625 14.703125 -0.167969 15.042969 0 C 15.109375 0 15.277344 0 15.484375 0 C 15.6875 0 15.890625 0 16.023438 0 C 16.160156 0.0351562 16.328125 0.101562 16.5 0.167969 Z M 16.5 0.167969 "/></g></g></g><g fill="#fafafa" fill-opacity="1"><g transform="translate(85.124207, 77.594775)"><g><path d="M 12.019531 -36.710938 C 11.898438 -36.832031 11.839844 -36.890625 11.839844 -36.949219 C 11 -38.386719 9.746094 -39.164062 8.070312 -39.222656 C 7.714844 -39.222656 7.292969 -39.222656 6.695312 -39.101562 C 6.097656 -38.984375 5.621094 -38.921875 5.382812 -38.921875 C 5.261719 -38.804688 4.960938 -38.625 4.542969 -38.386719 C 4.066406 -38.144531 3.765625 -37.90625 3.585938 -37.667969 C 3.347656 -37.429688 3.230469 -37.070312 3.109375 -36.710938 C 3.109375 -36.589844 3.109375 -36.414062 3.167969 -36.171875 C 3.167969 -35.933594 3.230469 -35.695312 3.289062 -35.457031 C 3.289062 -35.214844 3.347656 -34.976562 3.347656 -34.796875 C 3.40625 -33.601562 3.886719 -32.765625 4.785156 -32.40625 C 5.023438 -32.285156 5.261719 -32.167969 5.5 -32.105469 L 8.847656 -32.105469 C 9.445312 -32.046875 10.222656 -32.285156 11.0625 -32.824219 C 11.121094 -32.824219 11.179688 -32.882812 11.300781 -33.003906 C 11.421875 -33.0625 11.539062 -33.125 11.660156 -33.242188 C 11.777344 -33.601562 11.957031 -33.902344 12.136719 -34.199219 C 12.375 -34.558594 12.4375 -34.796875 12.257812 -35.035156 C 12.136719 -35.15625 12.078125 -35.695312 12.019531 -36.710938 Z M 3.347656 -28.101562 C 3.347656 -26.667969 3.347656 -25.890625 3.40625 -25.710938 C 3.40625 -25.410156 3.40625 -25.171875 3.40625 -24.933594 C 3.40625 -24.691406 3.40625 -24.453125 3.40625 -24.15625 C 3.40625 -23.855469 3.46875 -23.558594 3.585938 -23.316406 C 3.585938 -23.199219 3.648438 -22.300781 3.648438 -20.6875 C 3.648438 -20.328125 3.585938 -20.03125 3.527344 -19.789062 C 3.230469 -19.074219 3.167969 -18.355469 3.40625 -17.519531 C 3.585938 -16.800781 3.585938 -16.203125 3.46875 -15.726562 C 3.230469 -15.1875 3.230469 -14.707031 3.46875 -14.351562 C 3.765625 -13.8125 3.828125 -13.214844 3.585938 -12.496094 C 3.230469 -11.300781 3.289062 -10.164062 3.648438 -9.148438 C 3.707031 -8.730469 3.707031 -8.488281 3.585938 -8.371094 C 3.46875 -8.25 3.347656 -8.070312 3.347656 -7.953125 C 3.289062 -7.773438 3.289062 -7.59375 3.289062 -7.414062 C 3.289062 -7.234375 3.347656 -7.113281 3.347656 -7.054688 L 3.347656 -2.808594 C 3.347656 -1.972656 3.46875 -1.433594 3.707031 -1.136719 L 3.945312 -1.136719 C 4.183594 -0.957031 4.484375 -0.777344 4.960938 -0.65625 C 5.382812 -0.539062 5.679688 -0.417969 5.859375 -0.300781 C 6.039062 -0.0585938 6.398438 0 6.996094 -0.0585938 C 7.59375 -0.0585938 7.953125 -0.0585938 8.132812 -0.0585938 L 8.789062 -0.0585938 L 9.566406 -0.238281 C 10.042969 -0.359375 10.402344 -0.417969 10.523438 -0.539062 C 10.644531 -0.597656 10.882812 -0.777344 11.179688 -1.015625 C 11.421875 -1.253906 11.660156 -1.613281 11.777344 -2.03125 C 11.777344 -2.390625 11.777344 -2.929688 11.777344 -3.707031 C 11.777344 -4.425781 11.839844 -5.082031 12.019531 -5.558594 C 12.078125 -5.980469 12.078125 -6.875 12.019531 -8.191406 C 12.019531 -9.328125 11.898438 -10.042969 11.777344 -10.34375 C 11.597656 -10.582031 11.660156 -10.882812 11.898438 -11.300781 C 12.019531 -11.898438 12.019531 -12.554688 11.839844 -13.273438 C 11.597656 -13.75 11.597656 -14.171875 11.839844 -14.648438 C 11.957031 -14.828125 12.019531 -15.1875 12.019531 -15.726562 C 12.019531 -15.902344 11.957031 -16.082031 11.957031 -16.324219 C 11.957031 -16.503906 11.898438 -16.742188 11.898438 -16.980469 C 11.839844 -17.21875 11.839844 -17.457031 11.839844 -17.636719 C 11.71875 -17.878906 11.71875 -18.175781 11.839844 -18.65625 C 11.957031 -19.132812 12.019531 -19.433594 12.019531 -19.609375 C 12.019531 -19.730469 12.019531 -20.03125 12.078125 -20.628906 C 12.078125 -21.164062 12.078125 -21.585938 12.078125 -21.941406 C 12.019531 -22.300781 11.898438 -22.660156 11.777344 -23.019531 C 11.777344 -23.019531 11.777344 -23.378906 11.898438 -24.035156 C 12.019531 -24.753906 12.019531 -25.53125 11.898438 -26.308594 C 11.71875 -26.90625 11.777344 -27.445312 12.019531 -27.863281 C 11.957031 -28.042969 11.898438 -28.222656 11.777344 -28.398438 C 11.660156 -28.578125 11.539062 -28.757812 11.359375 -28.878906 C 11.179688 -29 11.0625 -29.117188 10.941406 -29.238281 C 10.820312 -29.296875 10.644531 -29.417969 10.402344 -29.535156 L 9.867188 -29.835938 C 8.3125 -29.597656 6.875 -29.535156 5.5 -29.535156 C 4.363281 -29.417969 3.648438 -28.9375 3.347656 -28.101562 Z M 3.347656 -28.101562 "/></g></g></g><g fill="#fafafa" fill-opacity="1"><g transform="translate(98.158451, 77.594775)"><g><path d="M 17.9375 -29.714844 C 17.578125 -29.714844 17.28125 -29.714844 17.101562 -29.777344 L 14.46875 -29.953125 C 13.273438 -30.195312 12.4375 -30.132812 11.957031 -29.714844 C 11.660156 -29.777344 11.300781 -29.714844 10.820312 -29.535156 C 10.34375 -29.296875 9.984375 -29.238281 9.804688 -29.238281 C 8.550781 -29.238281 7.535156 -28.757812 6.695312 -27.863281 C 6.578125 -27.742188 6.277344 -27.503906 5.859375 -27.144531 C 5.382812 -26.785156 5.082031 -26.546875 4.960938 -26.308594 C 3.765625 -24.691406 2.988281 -23.4375 2.628906 -22.480469 C 1.972656 -20.867188 1.675781 -19.671875 1.675781 -18.953125 L 1.675781 -18.175781 C 1.675781 -17.816406 1.613281 -17.578125 1.613281 -17.398438 C 1.613281 -17.21875 1.554688 -16.980469 1.496094 -16.742188 C 1.375 -16.441406 1.253906 -16.203125 1.136719 -15.964844 L 1.136719 -15.484375 C 1.078125 -14.949219 1.136719 -14.171875 1.253906 -13.214844 C 1.375 -12.195312 1.375 -11.421875 1.375 -10.882812 C 1.375 -10.761719 1.375 -10.703125 1.433594 -10.703125 C 1.496094 -10.644531 1.554688 -10.582031 1.554688 -10.523438 C 1.613281 -10.164062 2.210938 -8.609375 3.347656 -5.917969 C 3.46875 -5.261719 3.828125 -4.722656 4.363281 -4.304688 C 4.484375 -4.183594 4.664062 -3.886719 4.902344 -3.527344 C 5.082031 -2.988281 5.621094 -2.453125 6.457031 -1.972656 C 7.714844 -1.253906 9.148438 -0.71875 10.761719 -0.300781 C 10.941406 -0.238281 11.179688 -0.179688 11.539062 -0.0585938 C 11.898438 0.0585938 12.195312 0.179688 12.496094 0.179688 C 12.734375 0.238281 13.035156 0.238281 13.332031 0.179688 C 13.511719 0.179688 13.871094 0.238281 14.351562 0.238281 C 14.828125 0.238281 15.1875 0.238281 15.425781 0.179688 C 16.382812 0.121094 17.039062 0 17.519531 -0.121094 C 18.414062 -0.238281 19.253906 -0.539062 20.03125 -1.015625 C 20.269531 -1.136719 20.6875 -1.433594 21.164062 -1.792969 C 21.644531 -2.152344 22.0625 -2.390625 22.421875 -2.570312 C 22.898438 -2.929688 23.140625 -3.109375 23.199219 -3.167969 C 23.917969 -4.183594 24.453125 -4.960938 24.691406 -5.441406 L 25.230469 -7.054688 L 25.769531 -8.371094 C 26.425781 -9.6875 26.726562 -10.761719 26.605469 -11.480469 L 26.605469 -11.71875 C 26.847656 -11.957031 26.90625 -12.316406 26.847656 -12.914062 C 26.785156 -13.035156 26.847656 -13.273438 26.964844 -13.574219 C 27.085938 -13.8125 27.144531 -13.992188 27.144531 -14.109375 C 27.203125 -14.527344 27.144531 -15.125 27.023438 -15.902344 C 26.90625 -16.621094 26.847656 -17.21875 26.847656 -17.578125 C 26.726562 -17.699219 26.605469 -17.816406 26.605469 -17.9375 C 26.546875 -18.058594 26.546875 -18.234375 26.546875 -18.414062 C 26.546875 -18.59375 26.605469 -18.773438 26.605469 -18.894531 C 26.425781 -19.253906 26.367188 -19.671875 26.367188 -20.210938 C 26.367188 -20.566406 26.1875 -21.164062 25.890625 -21.882812 C 25.828125 -22.003906 25.710938 -22.183594 25.589844 -22.421875 C 25.410156 -22.660156 25.292969 -22.898438 25.292969 -23.078125 C 25.113281 -23.917969 24.632812 -24.753906 23.796875 -25.589844 L 22.242188 -27.144531 C 21.523438 -27.921875 20.386719 -28.640625 18.714844 -29.238281 C 18.65625 -29.238281 18.535156 -29.296875 18.414062 -29.417969 C 18.234375 -29.535156 18.058594 -29.597656 17.9375 -29.714844 Z M 14.707031 -6.875 C 14.46875 -6.875 14.171875 -6.996094 13.75 -7.113281 C 13.273438 -7.234375 12.972656 -7.355469 12.796875 -7.472656 C 11.898438 -7.773438 11.179688 -8.609375 10.582031 -10.042969 C 10.34375 -10.523438 10.105469 -11.359375 9.867188 -12.675781 C 9.625 -13.929688 9.625 -15.1875 9.867188 -16.503906 C 9.925781 -17.339844 10.042969 -18.058594 10.164062 -18.59375 C 10.644531 -20.03125 10.941406 -20.746094 11 -20.867188 C 11.839844 -22.0625 13.453125 -22.601562 15.964844 -22.363281 C 16.742188 -21.585938 17.21875 -20.808594 17.398438 -19.96875 C 17.519531 -19.550781 17.757812 -19.132812 17.996094 -18.773438 C 18.296875 -18.058594 18.476562 -17.101562 18.476562 -15.964844 C 18.476562 -15.84375 18.476562 -15.785156 18.476562 -15.726562 C 18.476562 -15.605469 18.535156 -15.546875 18.59375 -15.425781 C 18.59375 -15.304688 18.65625 -15.246094 18.65625 -15.246094 C 18.773438 -14.828125 18.773438 -14.589844 18.714844 -14.527344 C 18.476562 -14.171875 18.355469 -13.511719 18.476562 -12.617188 C 18.476562 -12.136719 18.355469 -11.539062 18.117188 -10.941406 C 17.996094 -10.703125 17.878906 -10.34375 17.699219 -9.984375 C 17.457031 -9.566406 17.339844 -9.265625 17.28125 -9.027344 C 17.160156 -8.789062 17.039062 -8.550781 16.921875 -8.371094 C 16.742188 -8.191406 16.5625 -8.070312 16.441406 -7.953125 C 16.324219 -7.832031 16.144531 -7.652344 15.902344 -7.535156 L 15.367188 -7.175781 C 15.246094 -7.054688 15.125 -6.996094 15.007812 -6.996094 C 14.886719 -6.9375 14.769531 -6.875 14.707031 -6.875 Z M 14.707031 -6.875 "/></g></g></g></svg>